<mxfile host="65bd71144e">
    <diagram id="BiI25BK-m004tcyKN06F" name="Home">
        <mxGraphModel dx="557" dy="251" grid="1" gridSize="10" guides="1" tooltips="1" connect="1" arrows="1" fold="1" page="1" pageScale="1" pageWidth="850" pageHeight="1100" math="0" shadow="0">
            <root>
                <mxCell id="0"/>
                <mxCell id="1" parent="0"/>
                <mxCell id="2" value="" style="rounded=0;whiteSpace=wrap;html=1;" parent="1" vertex="1">
                    <mxGeometry x="80" y="40" width="1080" height="120" as="geometry"/>
                </mxCell>
                <mxCell id="3" value="Logo" style="rounded=1;whiteSpace=wrap;html=1;" parent="1" vertex="1">
                    <mxGeometry x="90" y="60" width="160" height="80" as="geometry"/>
                </mxCell>
                <mxCell id="4" value="Đăng ký" style="rounded=0;whiteSpace=wrap;html=1;" parent="1" vertex="1">
                    <mxGeometry x="1060" y="80" width="80" height="40" as="geometry"/>
                </mxCell>
                <mxCell id="5" value="Đăng nhập" style="rounded=0;whiteSpace=wrap;html=1;" parent="1" vertex="1">
                    <mxGeometry x="970" y="80" width="80" height="40" as="geometry"/>
                </mxCell>
                <mxCell id="6" value="Trang chủ" style="rounded=0;whiteSpace=wrap;html=1;" parent="1" vertex="1">
                    <mxGeometry x="290" y="80" width="90" height="40" as="geometry"/>
                </mxCell>
                <mxCell id="7" value="Tỉnh Thành" style="rounded=0;whiteSpace=wrap;html=1;" parent="1" vertex="1">
                    <mxGeometry x="390" y="80" width="90" height="40" as="geometry"/>
                </mxCell>
                <mxCell id="9" value="" style="rounded=0;whiteSpace=wrap;html=1;" parent="1" vertex="1">
                    <mxGeometry x="80" y="170" width="1080" height="120" as="geometry"/>
                </mxCell>
                <mxCell id="10" value="Logo" style="rounded=1;whiteSpace=wrap;html=1;" parent="1" vertex="1">
                    <mxGeometry x="90" y="190" width="160" height="80" as="geometry"/>
                </mxCell>
                <mxCell id="11" value="Đăng xuất" style="rounded=0;whiteSpace=wrap;html=1;" parent="1" vertex="1">
                    <mxGeometry x="1060" y="210" width="80" height="40" as="geometry"/>
                </mxCell>
                <mxCell id="13" value="Trang chủ" style="rounded=0;whiteSpace=wrap;html=1;" parent="1" vertex="1">
                    <mxGeometry x="290" y="210" width="90" height="40" as="geometry"/>
                </mxCell>
                <mxCell id="21" style="edgeStyle=none;html=1;entryX=0.5;entryY=0;entryDx=0;entryDy=0;" parent="1" source="14" target="20" edge="1">
                    <mxGeometry relative="1" as="geometry"/>
                </mxCell>
                <mxCell id="27" style="edgeStyle=none;html=1;entryX=0.5;entryY=0;entryDx=0;entryDy=0;" parent="1" source="14" target="24" edge="1">
                    <mxGeometry relative="1" as="geometry"/>
                </mxCell>
                <mxCell id="28" style="edgeStyle=none;html=1;entryX=0.5;entryY=0;entryDx=0;entryDy=0;" parent="1" source="14" target="25" edge="1">
                    <mxGeometry relative="1" as="geometry"/>
                </mxCell>
                <mxCell id="14" value="Tỉnh Thành" style="rounded=0;whiteSpace=wrap;html=1;" parent="1" vertex="1">
                    <mxGeometry x="390" y="210" width="90" height="40" as="geometry"/>
                </mxCell>
                <mxCell id="15" value="Dò vé" style="rounded=0;whiteSpace=wrap;html=1;" parent="1" vertex="1">
                    <mxGeometry x="490" y="210" width="90" height="40" as="geometry"/>
                </mxCell>
                <mxCell id="16" value="Quản lý user" style="rounded=0;whiteSpace=wrap;html=1;fillColor=#FF0000;" parent="1" vertex="1">
                    <mxGeometry x="590" y="210" width="90" height="40" as="geometry"/>
                </mxCell>
                <mxCell id="17" value="Quản lý vé dò" style="rounded=0;whiteSpace=wrap;html=1;fillColor=#FF0000;" parent="1" vertex="1">
                    <mxGeometry x="690" y="210" width="100" height="40" as="geometry"/>
                </mxCell>
                <mxCell id="18" value="Lịch sử dò vé" style="rounded=0;whiteSpace=wrap;html=1;" parent="1" vertex="1">
                    <mxGeometry x="800" y="210" width="90" height="40" as="geometry"/>
                </mxCell>
                <mxCell id="20" value="Miền Nam" style="rounded=0;whiteSpace=wrap;html=1;fillColor=none;" parent="1" vertex="1">
                    <mxGeometry x="390" y="310" width="90" height="40" as="geometry"/>
                </mxCell>
                <mxCell id="24" value="Miền Bắc" style="rounded=0;whiteSpace=wrap;html=1;fillColor=none;" parent="1" vertex="1">
                    <mxGeometry x="290" y="310" width="90" height="40" as="geometry"/>
                </mxCell>
                <mxCell id="25" value="Miền Trung" style="rounded=0;whiteSpace=wrap;html=1;fillColor=none;" parent="1" vertex="1">
                    <mxGeometry x="490" y="310" width="90" height="40" as="geometry"/>
                </mxCell>
                <mxCell id="29" value="" style="rounded=0;whiteSpace=wrap;html=1;fillColor=none;" parent="1" vertex="1">
                    <mxGeometry x="80" y="400" width="1080" height="560" as="geometry"/>
                </mxCell>
                <mxCell id="30" value="" style="rounded=0;whiteSpace=wrap;html=1;fillColor=none;" parent="1" vertex="1">
                    <mxGeometry x="280" y="440" width="680" height="440" as="geometry"/>
                </mxCell>
                <mxCell id="31" value="&lt;font size=&quot;3&quot;&gt;KẾT QUẢ XỔ SỐ MỚI NHẤT&lt;/font&gt;" style="rounded=0;whiteSpace=wrap;html=1;fillColor=none;" parent="1" vertex="1">
                    <mxGeometry x="280" y="440" width="680" height="80" as="geometry"/>
                </mxCell>
                <mxCell id="32" value="04348" style="rounded=0;whiteSpace=wrap;html=1;fontSize=18;fillColor=none;" parent="1" vertex="1">
                    <mxGeometry x="400" y="520" width="560" height="40" as="geometry"/>
                </mxCell>
                <mxCell id="33" value="" style="rounded=0;whiteSpace=wrap;html=1;fontSize=18;fillColor=none;" parent="1" vertex="1">
                    <mxGeometry x="280" y="520" width="120" height="360" as="geometry"/>
                </mxCell>
                <mxCell id="34" value="Đặc biệt" style="rounded=0;whiteSpace=wrap;html=1;fontSize=18;fillColor=none;" parent="1" vertex="1">
                    <mxGeometry x="280" y="520" width="120" height="40" as="geometry"/>
                </mxCell>
                <mxCell id="35" value="1" style="rounded=0;whiteSpace=wrap;html=1;fontSize=18;fillColor=none;" parent="1" vertex="1">
                    <mxGeometry x="280" y="560" width="120" height="40" as="geometry"/>
                </mxCell>
                <mxCell id="36" value="2" style="rounded=0;whiteSpace=wrap;html=1;fontSize=18;fillColor=none;" parent="1" vertex="1">
                    <mxGeometry x="280" y="600" width="120" height="40" as="geometry"/>
                </mxCell>
                <mxCell id="37" value="3" style="rounded=0;whiteSpace=wrap;html=1;fontSize=18;fillColor=none;" parent="1" vertex="1">
                    <mxGeometry x="280" y="640" width="120" height="40" as="geometry"/>
                </mxCell>
                <mxCell id="38" value="47440" style="rounded=0;whiteSpace=wrap;html=1;fontSize=18;fillColor=none;" parent="1" vertex="1">
                    <mxGeometry x="400" y="560" width="560" height="40" as="geometry"/>
                </mxCell>
                <mxCell id="39" value="07110&amp;nbsp; &amp;nbsp; &amp;nbsp; &amp;nbsp; &amp;nbsp; &amp;nbsp; &amp;nbsp; &amp;nbsp; &amp;nbsp; &amp;nbsp; &amp;nbsp; &amp;nbsp; &amp;nbsp; &amp;nbsp; &amp;nbsp; &amp;nbsp; 79698" style="rounded=0;whiteSpace=wrap;html=1;fontSize=18;fillColor=none;" parent="1" vertex="1">
                    <mxGeometry x="400" y="600" width="560" height="40" as="geometry"/>
                </mxCell>
                <mxCell id="40" value="93040&amp;nbsp; &amp;nbsp; 56463&amp;nbsp; &amp;nbsp; 42102&amp;nbsp; &amp;nbsp; 26825&amp;nbsp; &amp;nbsp; 24283&amp;nbsp; &amp;nbsp; 93357" style="rounded=0;whiteSpace=wrap;html=1;fontSize=18;fillColor=none;" parent="1" vertex="1">
                    <mxGeometry x="400" y="640" width="560" height="40" as="geometry"/>
                </mxCell>
                <mxCell id="41" value="4" style="rounded=0;whiteSpace=wrap;html=1;fontSize=18;fillColor=none;" parent="1" vertex="1">
                    <mxGeometry x="280" y="680" width="120" height="40" as="geometry"/>
                </mxCell>
                <mxCell id="42" value="5" style="rounded=0;whiteSpace=wrap;html=1;fontSize=18;fillColor=none;" parent="1" vertex="1">
                    <mxGeometry x="280" y="720" width="120" height="40" as="geometry"/>
                </mxCell>
                <mxCell id="43" value="6" style="rounded=0;whiteSpace=wrap;html=1;fontSize=18;fillColor=none;" parent="1" vertex="1">
                    <mxGeometry x="280" y="760" width="120" height="40" as="geometry"/>
                </mxCell>
                <mxCell id="44" value="7" style="rounded=0;whiteSpace=wrap;html=1;fontSize=18;fillColor=none;" parent="1" vertex="1">
                    <mxGeometry x="280" y="800" width="120" height="40" as="geometry"/>
                </mxCell>
                <mxCell id="45" value="8" style="rounded=0;whiteSpace=wrap;html=1;fontSize=18;fillColor=none;" parent="1" vertex="1">
                    <mxGeometry x="280" y="840" width="120" height="40" as="geometry"/>
                </mxCell>
                <mxCell id="46" value="8176&amp;nbsp; &amp;nbsp; 3468&amp;nbsp; &amp;nbsp; 7667&amp;nbsp; &amp;nbsp; 3268" style="rounded=0;whiteSpace=wrap;html=1;fontSize=18;fillColor=none;" parent="1" vertex="1">
                    <mxGeometry x="400" y="680" width="560" height="40" as="geometry"/>
                </mxCell>
                <mxCell id="47" value="7510&amp;nbsp; &amp;nbsp; &amp;nbsp;6643&amp;nbsp; &amp;nbsp; &amp;nbsp;3719&amp;nbsp; &amp;nbsp; &amp;nbsp;1118&amp;nbsp; &amp;nbsp; &amp;nbsp;8814&amp;nbsp; &amp;nbsp; &amp;nbsp;2807" style="rounded=0;whiteSpace=wrap;html=1;fontSize=18;fillColor=none;" parent="1" vertex="1">
                    <mxGeometry x="400" y="720" width="560" height="40" as="geometry"/>
                </mxCell>
                <mxCell id="48" value="482&amp;nbsp; &amp;nbsp; &amp;nbsp;574&amp;nbsp; &amp;nbsp; &amp;nbsp;954" style="rounded=0;whiteSpace=wrap;html=1;fontSize=18;fillColor=none;" parent="1" vertex="1">
                    <mxGeometry x="400" y="760" width="560" height="40" as="geometry"/>
                </mxCell>
                <mxCell id="49" value="73&amp;nbsp; &amp;nbsp; &amp;nbsp;13&amp;nbsp; &amp;nbsp; &amp;nbsp;23&amp;nbsp; &amp;nbsp; &amp;nbsp;25" style="rounded=0;whiteSpace=wrap;html=1;fontSize=18;fillColor=none;" parent="1" vertex="1">
                    <mxGeometry x="400" y="800" width="560" height="40" as="geometry"/>
                </mxCell>
                <mxCell id="50" value="..." style="rounded=0;whiteSpace=wrap;html=1;fontSize=18;fillColor=none;" parent="1" vertex="1">
                    <mxGeometry x="400" y="840" width="560" height="40" as="geometry"/>
                </mxCell>
            </root>
        </mxGraphModel>
    </diagram>
    <diagram id="3q1Vfm8iJFg37b_ubcrl" name="Add/Update Lottery">
        <mxGraphModel dx="1633" dy="2058" grid="1" gridSize="10" guides="1" tooltips="1" connect="1" arrows="1" fold="1" page="1" pageScale="1" pageWidth="850" pageHeight="1100" math="0" shadow="0">
            <root>
                <mxCell id="KQXujtF7CrqTz9I3SX7Y-0"/>
                <mxCell id="KQXujtF7CrqTz9I3SX7Y-1" parent="KQXujtF7CrqTz9I3SX7Y-0"/>
                <mxCell id="3FZWS1wWWFqGqf6MfTLa-19" style="edgeStyle=none;html=1;entryX=0.5;entryY=1;entryDx=0;entryDy=0;fontSize=18;fontColor=#FAFAFA;" edge="1" parent="KQXujtF7CrqTz9I3SX7Y-1" source="n7geHH85YBCkHhaIXiWx-0" target="3FZWS1wWWFqGqf6MfTLa-18">
                    <mxGeometry relative="1" as="geometry"/>
                </mxCell>
                <mxCell id="n7geHH85YBCkHhaIXiWx-0" value="" style="rounded=0;whiteSpace=wrap;html=1;fontSize=18;fillColor=none;" parent="KQXujtF7CrqTz9I3SX7Y-1" vertex="1">
                    <mxGeometry x="120" y="-80" width="720" height="1410" as="geometry"/>
                </mxCell>
                <mxCell id="n7geHH85YBCkHhaIXiWx-1" value="Select box" style="rounded=1;whiteSpace=wrap;html=1;fontSize=18;fillColor=none;" parent="KQXujtF7CrqTz9I3SX7Y-1" vertex="1">
                    <mxGeometry x="360" y="120" width="280" height="40" as="geometry"/>
                </mxCell>
                <mxCell id="n7geHH85YBCkHhaIXiWx-2" value="&lt;b&gt;Tỉnh&lt;/b&gt;" style="text;html=1;strokeColor=none;fillColor=none;align=left;verticalAlign=middle;whiteSpace=wrap;rounded=0;fontSize=18;" parent="KQXujtF7CrqTz9I3SX7Y-1" vertex="1">
                    <mxGeometry x="160" y="125" width="60" height="30" as="geometry"/>
                </mxCell>
                <mxCell id="n7geHH85YBCkHhaIXiWx-96" style="edgeStyle=none;html=1;fontSize=18;entryX=0;entryY=0.5;entryDx=0;entryDy=0;" parent="KQXujtF7CrqTz9I3SX7Y-1" source="n7geHH85YBCkHhaIXiWx-3" target="n7geHH85YBCkHhaIXiWx-97" edge="1">
                    <mxGeometry relative="1" as="geometry">
                        <mxPoint x="960" y="200" as="targetPoint"/>
                    </mxGeometry>
                </mxCell>
                <mxCell id="n7geHH85YBCkHhaIXiWx-3" value="Date select" style="rounded=1;whiteSpace=wrap;html=1;fontSize=18;fillColor=none;" parent="KQXujtF7CrqTz9I3SX7Y-1" vertex="1">
                    <mxGeometry x="360" y="200" width="280" height="40" as="geometry"/>
                </mxCell>
                <mxCell id="n7geHH85YBCkHhaIXiWx-4" value="&lt;b&gt;Ngày&lt;/b&gt;" style="text;html=1;strokeColor=none;fillColor=none;align=left;verticalAlign=middle;whiteSpace=wrap;rounded=0;fontSize=18;" parent="KQXujtF7CrqTz9I3SX7Y-1" vertex="1">
                    <mxGeometry x="160" y="205" width="60" height="30" as="geometry"/>
                </mxCell>
                <mxCell id="n7geHH85YBCkHhaIXiWx-5" value="&lt;b&gt;Giải đặc biệt&lt;/b&gt;" style="text;html=1;strokeColor=none;fillColor=none;align=left;verticalAlign=middle;whiteSpace=wrap;rounded=0;fontSize=18;" parent="KQXujtF7CrqTz9I3SX7Y-1" vertex="1">
                    <mxGeometry x="160" y="290" width="120" height="30" as="geometry"/>
                </mxCell>
                <mxCell id="xm9dw9YB-WdBqIirziVC-3" style="edgeStyle=none;html=1;entryX=0;entryY=0.5;entryDx=0;entryDy=0;fontSize=12;fontColor=#FAFAFA;" edge="1" parent="KQXujtF7CrqTz9I3SX7Y-1" source="n7geHH85YBCkHhaIXiWx-6" target="xm9dw9YB-WdBqIirziVC-2">
                    <mxGeometry relative="1" as="geometry"/>
                </mxCell>
                <mxCell id="n7geHH85YBCkHhaIXiWx-6" value="number" style="rounded=1;whiteSpace=wrap;html=1;fontSize=18;fillColor=none;" parent="KQXujtF7CrqTz9I3SX7Y-1" vertex="1">
                    <mxGeometry x="360" y="280" width="280" height="40" as="geometry"/>
                </mxCell>
                <mxCell id="n7geHH85YBCkHhaIXiWx-7" value="&lt;b&gt;Giải nhất&lt;/b&gt;" style="text;html=1;strokeColor=none;fillColor=none;align=left;verticalAlign=middle;whiteSpace=wrap;rounded=0;fontSize=18;" parent="KQXujtF7CrqTz9I3SX7Y-1" vertex="1">
                    <mxGeometry x="160" y="370" width="120" height="30" as="geometry"/>
                </mxCell>
                <mxCell id="xm9dw9YB-WdBqIirziVC-5" style="edgeStyle=none;html=1;entryX=0;entryY=0.5;entryDx=0;entryDy=0;fontSize=12;fontColor=#FAFAFA;" edge="1" parent="KQXujtF7CrqTz9I3SX7Y-1" source="n7geHH85YBCkHhaIXiWx-8" target="xm9dw9YB-WdBqIirziVC-2">
                    <mxGeometry relative="1" as="geometry"/>
                </mxCell>
                <mxCell id="n7geHH85YBCkHhaIXiWx-8" value="number" style="rounded=1;whiteSpace=wrap;html=1;fontSize=18;fillColor=none;" parent="KQXujtF7CrqTz9I3SX7Y-1" vertex="1">
                    <mxGeometry x="360" y="360" width="280" height="40" as="geometry"/>
                </mxCell>
                <mxCell id="n7geHH85YBCkHhaIXiWx-9" value="&lt;b&gt;Giải nhì&lt;/b&gt;" style="text;html=1;strokeColor=none;fillColor=none;align=left;verticalAlign=middle;whiteSpace=wrap;rounded=0;fontSize=18;" parent="KQXujtF7CrqTz9I3SX7Y-1" vertex="1">
                    <mxGeometry x="160" y="445" width="120" height="30" as="geometry"/>
                </mxCell>
                <mxCell id="n7geHH85YBCkHhaIXiWx-10" value="g2_1" style="rounded=1;whiteSpace=wrap;html=1;fontSize=18;fillColor=none;" parent="KQXujtF7CrqTz9I3SX7Y-1" vertex="1">
                    <mxGeometry x="360" y="440" width="120" height="40" as="geometry"/>
                </mxCell>
                <mxCell id="xm9dw9YB-WdBqIirziVC-6" style="edgeStyle=none;html=1;entryX=0;entryY=0.5;entryDx=0;entryDy=0;fontSize=12;fontColor=#FAFAFA;" edge="1" parent="KQXujtF7CrqTz9I3SX7Y-1" source="n7geHH85YBCkHhaIXiWx-11" target="xm9dw9YB-WdBqIirziVC-2">
                    <mxGeometry relative="1" as="geometry"/>
                </mxCell>
                <mxCell id="n7geHH85YBCkHhaIXiWx-11" value="g2_2" style="rounded=1;whiteSpace=wrap;html=1;fontSize=18;fillColor=none;" parent="KQXujtF7CrqTz9I3SX7Y-1" vertex="1">
                    <mxGeometry x="520" y="440" width="120" height="40" as="geometry"/>
                </mxCell>
                <mxCell id="n7geHH85YBCkHhaIXiWx-12" value="&lt;b&gt;Giải 3&lt;/b&gt;" style="text;html=1;strokeColor=none;fillColor=none;align=left;verticalAlign=middle;whiteSpace=wrap;rounded=0;fontSize=18;" parent="KQXujtF7CrqTz9I3SX7Y-1" vertex="1">
                    <mxGeometry x="160" y="525" width="120" height="30" as="geometry"/>
                </mxCell>
                <mxCell id="n7geHH85YBCkHhaIXiWx-13" value="g3_1" style="rounded=1;whiteSpace=wrap;html=1;fontSize=18;fillColor=none;" parent="KQXujtF7CrqTz9I3SX7Y-1" vertex="1">
                    <mxGeometry x="360" y="520" width="120" height="40" as="geometry"/>
                </mxCell>
                <mxCell id="n7geHH85YBCkHhaIXiWx-14" value="g3_2" style="rounded=1;whiteSpace=wrap;html=1;fontSize=18;fillColor=none;" parent="KQXujtF7CrqTz9I3SX7Y-1" vertex="1">
                    <mxGeometry x="520" y="520" width="120" height="40" as="geometry"/>
                </mxCell>
                <mxCell id="xm9dw9YB-WdBqIirziVC-7" style="edgeStyle=none;html=1;entryX=0;entryY=0.5;entryDx=0;entryDy=0;fontSize=12;fontColor=#FAFAFA;" edge="1" parent="KQXujtF7CrqTz9I3SX7Y-1" source="n7geHH85YBCkHhaIXiWx-15" target="xm9dw9YB-WdBqIirziVC-2">
                    <mxGeometry relative="1" as="geometry"/>
                </mxCell>
                <mxCell id="n7geHH85YBCkHhaIXiWx-15" value="g3_3" style="rounded=1;whiteSpace=wrap;html=1;fontSize=18;fillColor=none;" parent="KQXujtF7CrqTz9I3SX7Y-1" vertex="1">
                    <mxGeometry x="680" y="520" width="120" height="40" as="geometry"/>
                </mxCell>
                <mxCell id="n7geHH85YBCkHhaIXiWx-16" value="g3_4" style="rounded=1;whiteSpace=wrap;html=1;fontSize=18;fillColor=none;" parent="KQXujtF7CrqTz9I3SX7Y-1" vertex="1">
                    <mxGeometry x="360" y="600" width="120" height="40" as="geometry"/>
                </mxCell>
                <mxCell id="n7geHH85YBCkHhaIXiWx-17" value="g3_5" style="rounded=1;whiteSpace=wrap;html=1;fontSize=18;fillColor=none;" parent="KQXujtF7CrqTz9I3SX7Y-1" vertex="1">
                    <mxGeometry x="520" y="600" width="120" height="40" as="geometry"/>
                </mxCell>
                <mxCell id="xm9dw9YB-WdBqIirziVC-8" style="edgeStyle=none;html=1;entryX=0;entryY=0.5;entryDx=0;entryDy=0;fontSize=12;fontColor=#FAFAFA;" edge="1" parent="KQXujtF7CrqTz9I3SX7Y-1" source="n7geHH85YBCkHhaIXiWx-18" target="xm9dw9YB-WdBqIirziVC-2">
                    <mxGeometry relative="1" as="geometry"/>
                </mxCell>
                <mxCell id="n7geHH85YBCkHhaIXiWx-18" value="g3_6" style="rounded=1;whiteSpace=wrap;html=1;fontSize=18;fillColor=none;" parent="KQXujtF7CrqTz9I3SX7Y-1" vertex="1">
                    <mxGeometry x="680" y="600" width="120" height="40" as="geometry"/>
                </mxCell>
                <mxCell id="n7geHH85YBCkHhaIXiWx-19" value="&lt;b&gt;Giải 4&lt;/b&gt;" style="text;html=1;strokeColor=none;fillColor=none;align=left;verticalAlign=middle;whiteSpace=wrap;rounded=0;fontSize=18;" parent="KQXujtF7CrqTz9I3SX7Y-1" vertex="1">
                    <mxGeometry x="160" y="685" width="120" height="30" as="geometry"/>
                </mxCell>
                <mxCell id="n7geHH85YBCkHhaIXiWx-20" value="g4_1" style="rounded=1;whiteSpace=wrap;html=1;fontSize=18;fillColor=none;" parent="KQXujtF7CrqTz9I3SX7Y-1" vertex="1">
                    <mxGeometry x="360" y="680" width="120" height="40" as="geometry"/>
                </mxCell>
                <mxCell id="n7geHH85YBCkHhaIXiWx-21" value="g4_2" style="rounded=1;whiteSpace=wrap;html=1;fontSize=18;fillColor=none;" parent="KQXujtF7CrqTz9I3SX7Y-1" vertex="1">
                    <mxGeometry x="520" y="680" width="120" height="40" as="geometry"/>
                </mxCell>
                <mxCell id="n7geHH85YBCkHhaIXiWx-23" value="g4_3" style="rounded=1;whiteSpace=wrap;html=1;fontSize=18;fillColor=none;" parent="KQXujtF7CrqTz9I3SX7Y-1" vertex="1">
                    <mxGeometry x="360" y="760" width="120" height="40" as="geometry"/>
                </mxCell>
                <mxCell id="xm9dw9YB-WdBqIirziVC-10" style="edgeStyle=none;html=1;entryX=0;entryY=0.5;entryDx=0;entryDy=0;fontSize=12;fontColor=#FAFAFA;" edge="1" parent="KQXujtF7CrqTz9I3SX7Y-1" source="n7geHH85YBCkHhaIXiWx-24" target="xm9dw9YB-WdBqIirziVC-9">
                    <mxGeometry relative="1" as="geometry"/>
                </mxCell>
                <mxCell id="n7geHH85YBCkHhaIXiWx-24" value="g4_4" style="rounded=1;whiteSpace=wrap;html=1;fontSize=18;fillColor=none;" parent="KQXujtF7CrqTz9I3SX7Y-1" vertex="1">
                    <mxGeometry x="520" y="760" width="120" height="40" as="geometry"/>
                </mxCell>
                <mxCell id="n7geHH85YBCkHhaIXiWx-26" value="&lt;b&gt;Giải 5&lt;/b&gt;" style="text;html=1;strokeColor=none;fillColor=none;align=left;verticalAlign=middle;whiteSpace=wrap;rounded=0;fontSize=18;" parent="KQXujtF7CrqTz9I3SX7Y-1" vertex="1">
                    <mxGeometry x="160" y="845" width="120" height="30" as="geometry"/>
                </mxCell>
                <mxCell id="n7geHH85YBCkHhaIXiWx-27" value="g5_1" style="rounded=1;whiteSpace=wrap;html=1;fontSize=18;fillColor=none;" parent="KQXujtF7CrqTz9I3SX7Y-1" vertex="1">
                    <mxGeometry x="360" y="840" width="120" height="40" as="geometry"/>
                </mxCell>
                <mxCell id="n7geHH85YBCkHhaIXiWx-28" value="g5_2" style="rounded=1;whiteSpace=wrap;html=1;fontSize=18;fillColor=none;" parent="KQXujtF7CrqTz9I3SX7Y-1" vertex="1">
                    <mxGeometry x="520" y="840" width="120" height="40" as="geometry"/>
                </mxCell>
                <mxCell id="xm9dw9YB-WdBqIirziVC-11" style="edgeStyle=none;html=1;entryX=0;entryY=0.5;entryDx=0;entryDy=0;fontSize=12;fontColor=#FAFAFA;" edge="1" parent="KQXujtF7CrqTz9I3SX7Y-1" source="n7geHH85YBCkHhaIXiWx-29" target="xm9dw9YB-WdBqIirziVC-9">
                    <mxGeometry relative="1" as="geometry"/>
                </mxCell>
                <mxCell id="n7geHH85YBCkHhaIXiWx-29" value="g5_3" style="rounded=1;whiteSpace=wrap;html=1;fontSize=18;fillColor=none;" parent="KQXujtF7CrqTz9I3SX7Y-1" vertex="1">
                    <mxGeometry x="680" y="840" width="120" height="40" as="geometry"/>
                </mxCell>
                <mxCell id="n7geHH85YBCkHhaIXiWx-30" value="g5_4" style="rounded=1;whiteSpace=wrap;html=1;fontSize=18;fillColor=none;" parent="KQXujtF7CrqTz9I3SX7Y-1" vertex="1">
                    <mxGeometry x="360" y="920" width="120" height="40" as="geometry"/>
                </mxCell>
                <mxCell id="n7geHH85YBCkHhaIXiWx-31" value="g5_5" style="rounded=1;whiteSpace=wrap;html=1;fontSize=18;fillColor=none;" parent="KQXujtF7CrqTz9I3SX7Y-1" vertex="1">
                    <mxGeometry x="520" y="920" width="120" height="40" as="geometry"/>
                </mxCell>
                <mxCell id="xm9dw9YB-WdBqIirziVC-12" style="edgeStyle=none;html=1;entryX=0;entryY=0.5;entryDx=0;entryDy=0;fontSize=12;fontColor=#FAFAFA;" edge="1" parent="KQXujtF7CrqTz9I3SX7Y-1" source="n7geHH85YBCkHhaIXiWx-32" target="xm9dw9YB-WdBqIirziVC-9">
                    <mxGeometry relative="1" as="geometry"/>
                </mxCell>
                <mxCell id="n7geHH85YBCkHhaIXiWx-32" value="g5_6" style="rounded=1;whiteSpace=wrap;html=1;fontSize=18;fillColor=none;" parent="KQXujtF7CrqTz9I3SX7Y-1" vertex="1">
                    <mxGeometry x="680" y="920" width="120" height="40" as="geometry"/>
                </mxCell>
                <mxCell id="n7geHH85YBCkHhaIXiWx-33" value="&lt;b&gt;Giải 6&lt;/b&gt;" style="text;html=1;strokeColor=none;fillColor=none;align=left;verticalAlign=middle;whiteSpace=wrap;rounded=0;fontSize=18;" parent="KQXujtF7CrqTz9I3SX7Y-1" vertex="1">
                    <mxGeometry x="160" y="1005" width="120" height="30" as="geometry"/>
                </mxCell>
                <mxCell id="n7geHH85YBCkHhaIXiWx-34" value="g6_1" style="rounded=1;whiteSpace=wrap;html=1;fontSize=18;fillColor=none;" parent="KQXujtF7CrqTz9I3SX7Y-1" vertex="1">
                    <mxGeometry x="360" y="1000" width="120" height="40" as="geometry"/>
                </mxCell>
                <mxCell id="n7geHH85YBCkHhaIXiWx-35" value="g6_2" style="rounded=1;whiteSpace=wrap;html=1;fontSize=18;fillColor=none;" parent="KQXujtF7CrqTz9I3SX7Y-1" vertex="1">
                    <mxGeometry x="520" y="1000" width="120" height="40" as="geometry"/>
                </mxCell>
                <mxCell id="xm9dw9YB-WdBqIirziVC-14" style="edgeStyle=none;html=1;entryX=0;entryY=0.5;entryDx=0;entryDy=0;fontSize=12;fontColor=#FAFAFA;" edge="1" parent="KQXujtF7CrqTz9I3SX7Y-1" source="n7geHH85YBCkHhaIXiWx-36" target="xm9dw9YB-WdBqIirziVC-13">
                    <mxGeometry relative="1" as="geometry"/>
                </mxCell>
                <mxCell id="n7geHH85YBCkHhaIXiWx-36" value="g6_3" style="rounded=1;whiteSpace=wrap;html=1;fontSize=18;fillColor=none;" parent="KQXujtF7CrqTz9I3SX7Y-1" vertex="1">
                    <mxGeometry x="680" y="1000" width="120" height="40" as="geometry"/>
                </mxCell>
                <mxCell id="n7geHH85YBCkHhaIXiWx-37" value="&lt;b&gt;Giải 7&lt;/b&gt;" style="text;html=1;strokeColor=none;fillColor=none;align=left;verticalAlign=middle;whiteSpace=wrap;rounded=0;fontSize=18;" parent="KQXujtF7CrqTz9I3SX7Y-1" vertex="1">
                    <mxGeometry x="160" y="1085" width="120" height="30" as="geometry"/>
                </mxCell>
                <mxCell id="n7geHH85YBCkHhaIXiWx-38" value="g7_1" style="rounded=1;whiteSpace=wrap;html=1;fontSize=18;fillColor=none;" parent="KQXujtF7CrqTz9I3SX7Y-1" vertex="1">
                    <mxGeometry x="360" y="1080" width="120" height="40" as="geometry"/>
                </mxCell>
                <mxCell id="xm9dw9YB-WdBqIirziVC-15" style="edgeStyle=none;html=1;entryX=0;entryY=0.5;entryDx=0;entryDy=0;fontSize=12;fontColor=#FAFAFA;" edge="1" parent="KQXujtF7CrqTz9I3SX7Y-1" source="n7geHH85YBCkHhaIXiWx-39" target="xm9dw9YB-WdBqIirziVC-13">
                    <mxGeometry relative="1" as="geometry"/>
                </mxCell>
                <mxCell id="n7geHH85YBCkHhaIXiWx-39" value="g7_2" style="rounded=1;whiteSpace=wrap;html=1;fontSize=18;fillColor=none;" parent="KQXujtF7CrqTz9I3SX7Y-1" vertex="1">
                    <mxGeometry x="520" y="1080" width="120" height="40" as="geometry"/>
                </mxCell>
                <mxCell id="n7geHH85YBCkHhaIXiWx-40" value="g7_3" style="rounded=1;whiteSpace=wrap;html=1;fontSize=18;fillColor=none;" parent="KQXujtF7CrqTz9I3SX7Y-1" vertex="1">
                    <mxGeometry x="360" y="1160" width="120" height="40" as="geometry"/>
                </mxCell>
                <mxCell id="xm9dw9YB-WdBqIirziVC-16" style="edgeStyle=none;html=1;entryX=0;entryY=0.5;entryDx=0;entryDy=0;fontSize=12;fontColor=#FAFAFA;" edge="1" parent="KQXujtF7CrqTz9I3SX7Y-1" source="n7geHH85YBCkHhaIXiWx-41" target="xm9dw9YB-WdBqIirziVC-13">
                    <mxGeometry relative="1" as="geometry"/>
                </mxCell>
                <mxCell id="n7geHH85YBCkHhaIXiWx-41" value="g7_4" style="rounded=1;whiteSpace=wrap;html=1;fontSize=18;fillColor=none;" parent="KQXujtF7CrqTz9I3SX7Y-1" vertex="1">
                    <mxGeometry x="520" y="1160" width="120" height="40" as="geometry"/>
                </mxCell>
                <mxCell id="n7geHH85YBCkHhaIXiWx-43" value="" style="rounded=0;whiteSpace=wrap;html=1;fontSize=18;fillColor=none;" parent="KQXujtF7CrqTz9I3SX7Y-1" vertex="1">
                    <mxGeometry x="1360" y="-80" width="720" height="1320" as="geometry"/>
                </mxCell>
                <mxCell id="n7geHH85YBCkHhaIXiWx-44" value="Select box" style="rounded=1;whiteSpace=wrap;html=1;fontSize=18;fillColor=none;" parent="KQXujtF7CrqTz9I3SX7Y-1" vertex="1">
                    <mxGeometry x="1600" y="120" width="280" height="40" as="geometry"/>
                </mxCell>
                <mxCell id="n7geHH85YBCkHhaIXiWx-45" value="Tỉnh" style="text;html=1;strokeColor=none;fillColor=none;align=left;verticalAlign=middle;whiteSpace=wrap;rounded=0;fontSize=18;fontStyle=1" parent="KQXujtF7CrqTz9I3SX7Y-1" vertex="1">
                    <mxGeometry x="1400" y="125" width="60" height="30" as="geometry"/>
                </mxCell>
                <mxCell id="n7geHH85YBCkHhaIXiWx-46" value="Date select" style="rounded=1;whiteSpace=wrap;html=1;fontSize=18;fillColor=none;" parent="KQXujtF7CrqTz9I3SX7Y-1" vertex="1">
                    <mxGeometry x="1600" y="200" width="280" height="40" as="geometry"/>
                </mxCell>
                <mxCell id="n7geHH85YBCkHhaIXiWx-47" value="Ngày" style="text;html=1;strokeColor=none;fillColor=none;align=left;verticalAlign=middle;whiteSpace=wrap;rounded=0;fontSize=18;fontStyle=1" parent="KQXujtF7CrqTz9I3SX7Y-1" vertex="1">
                    <mxGeometry x="1400" y="205" width="60" height="30" as="geometry"/>
                </mxCell>
                <mxCell id="n7geHH85YBCkHhaIXiWx-48" value="Giải đặc biệt" style="text;html=1;strokeColor=none;fillColor=none;align=left;verticalAlign=middle;whiteSpace=wrap;rounded=0;fontSize=18;fontStyle=1" parent="KQXujtF7CrqTz9I3SX7Y-1" vertex="1">
                    <mxGeometry x="1400" y="285" width="120" height="30" as="geometry"/>
                </mxCell>
                <mxCell id="n7geHH85YBCkHhaIXiWx-49" value="1" style="rounded=1;whiteSpace=wrap;html=1;fontSize=18;fillColor=none;" parent="KQXujtF7CrqTz9I3SX7Y-1" vertex="1">
                    <mxGeometry x="1600" y="280" width="120" height="40" as="geometry"/>
                </mxCell>
                <mxCell id="n7geHH85YBCkHhaIXiWx-50" value="Giải nhất" style="text;html=1;strokeColor=none;fillColor=none;align=left;verticalAlign=middle;whiteSpace=wrap;rounded=0;fontSize=18;fontStyle=1" parent="KQXujtF7CrqTz9I3SX7Y-1" vertex="1">
                    <mxGeometry x="1400" y="365" width="120" height="30" as="geometry"/>
                </mxCell>
                <mxCell id="n7geHH85YBCkHhaIXiWx-51" value="1" style="rounded=1;whiteSpace=wrap;html=1;fontSize=18;fillColor=none;" parent="KQXujtF7CrqTz9I3SX7Y-1" vertex="1">
                    <mxGeometry x="1600" y="355" width="120" height="40" as="geometry"/>
                </mxCell>
                <mxCell id="n7geHH85YBCkHhaIXiWx-52" value="Giải nhì" style="text;html=1;strokeColor=none;fillColor=none;align=left;verticalAlign=middle;whiteSpace=wrap;rounded=0;fontSize=18;fontStyle=1" parent="KQXujtF7CrqTz9I3SX7Y-1" vertex="1">
                    <mxGeometry x="1400" y="450" width="120" height="30" as="geometry"/>
                </mxCell>
                <mxCell id="n7geHH85YBCkHhaIXiWx-53" value="1" style="rounded=1;whiteSpace=wrap;html=1;fontSize=18;fillColor=none;" parent="KQXujtF7CrqTz9I3SX7Y-1" vertex="1">
                    <mxGeometry x="1600" y="440" width="120" height="40" as="geometry"/>
                </mxCell>
                <mxCell id="n7geHH85YBCkHhaIXiWx-55" value="Giải 3" style="text;html=1;strokeColor=none;fillColor=none;align=left;verticalAlign=middle;whiteSpace=wrap;rounded=0;fontSize=18;fontStyle=1" parent="KQXujtF7CrqTz9I3SX7Y-1" vertex="1">
                    <mxGeometry x="1400" y="525" width="120" height="30" as="geometry"/>
                </mxCell>
                <mxCell id="n7geHH85YBCkHhaIXiWx-56" value="1" style="rounded=1;whiteSpace=wrap;html=1;fontSize=18;fillColor=none;" parent="KQXujtF7CrqTz9I3SX7Y-1" vertex="1">
                    <mxGeometry x="1600" y="520" width="120" height="40" as="geometry"/>
                </mxCell>
                <mxCell id="n7geHH85YBCkHhaIXiWx-57" value="2" style="rounded=1;whiteSpace=wrap;html=1;fontSize=18;fillColor=none;" parent="KQXujtF7CrqTz9I3SX7Y-1" vertex="1">
                    <mxGeometry x="1760" y="520" width="120" height="40" as="geometry"/>
                </mxCell>
                <mxCell id="n7geHH85YBCkHhaIXiWx-58" value="3" style="rounded=1;whiteSpace=wrap;html=1;fontSize=18;fillColor=none;" parent="KQXujtF7CrqTz9I3SX7Y-1" vertex="1">
                    <mxGeometry x="1920" y="520" width="120" height="40" as="geometry"/>
                </mxCell>
                <mxCell id="n7geHH85YBCkHhaIXiWx-62" value="Giải 4" style="text;html=1;strokeColor=none;fillColor=none;align=left;verticalAlign=middle;whiteSpace=wrap;rounded=0;fontSize=18;fontStyle=1" parent="KQXujtF7CrqTz9I3SX7Y-1" vertex="1">
                    <mxGeometry x="1400" y="605" width="80" height="30" as="geometry"/>
                </mxCell>
                <mxCell id="n7geHH85YBCkHhaIXiWx-63" value="1" style="rounded=1;whiteSpace=wrap;html=1;fontSize=18;fillColor=none;" parent="KQXujtF7CrqTz9I3SX7Y-1" vertex="1">
                    <mxGeometry x="1600" y="600" width="120" height="40" as="geometry"/>
                </mxCell>
                <mxCell id="n7geHH85YBCkHhaIXiWx-64" value="2" style="rounded=1;whiteSpace=wrap;html=1;fontSize=18;fillColor=none;" parent="KQXujtF7CrqTz9I3SX7Y-1" vertex="1">
                    <mxGeometry x="1760" y="600" width="120" height="40" as="geometry"/>
                </mxCell>
                <mxCell id="n7geHH85YBCkHhaIXiWx-65" value="4" style="rounded=1;whiteSpace=wrap;html=1;fontSize=18;fillColor=none;" parent="KQXujtF7CrqTz9I3SX7Y-1" vertex="1">
                    <mxGeometry x="1600" y="680" width="120" height="40" as="geometry"/>
                </mxCell>
                <mxCell id="n7geHH85YBCkHhaIXiWx-66" value="5" style="rounded=1;whiteSpace=wrap;html=1;fontSize=18;fillColor=none;" parent="KQXujtF7CrqTz9I3SX7Y-1" vertex="1">
                    <mxGeometry x="1760" y="680" width="120" height="40" as="geometry"/>
                </mxCell>
                <mxCell id="n7geHH85YBCkHhaIXiWx-67" value="Giải 5" style="text;html=1;strokeColor=none;fillColor=none;align=left;verticalAlign=middle;whiteSpace=wrap;rounded=0;fontSize=18;fontStyle=1" parent="KQXujtF7CrqTz9I3SX7Y-1" vertex="1">
                    <mxGeometry x="1400" y="845" width="120" height="30" as="geometry"/>
                </mxCell>
                <mxCell id="n7geHH85YBCkHhaIXiWx-68" value="1" style="rounded=1;whiteSpace=wrap;html=1;fontSize=18;fillColor=none;" parent="KQXujtF7CrqTz9I3SX7Y-1" vertex="1">
                    <mxGeometry x="1600" y="840" width="120" height="40" as="geometry"/>
                </mxCell>
                <mxCell id="n7geHH85YBCkHhaIXiWx-74" value="Giải 6" style="text;html=1;strokeColor=none;fillColor=none;align=left;verticalAlign=middle;whiteSpace=wrap;rounded=0;fontSize=18;fontStyle=1" parent="KQXujtF7CrqTz9I3SX7Y-1" vertex="1">
                    <mxGeometry x="1400" y="925" width="120" height="30" as="geometry"/>
                </mxCell>
                <mxCell id="n7geHH85YBCkHhaIXiWx-75" value="1" style="rounded=1;whiteSpace=wrap;html=1;fontSize=18;fillColor=none;" parent="KQXujtF7CrqTz9I3SX7Y-1" vertex="1">
                    <mxGeometry x="1600" y="920" width="120" height="40" as="geometry"/>
                </mxCell>
                <mxCell id="n7geHH85YBCkHhaIXiWx-76" value="2" style="rounded=1;whiteSpace=wrap;html=1;fontSize=18;fillColor=none;" parent="KQXujtF7CrqTz9I3SX7Y-1" vertex="1">
                    <mxGeometry x="1760" y="920" width="120" height="40" as="geometry"/>
                </mxCell>
                <mxCell id="n7geHH85YBCkHhaIXiWx-77" value="3" style="rounded=1;whiteSpace=wrap;html=1;fontSize=18;fillColor=none;" parent="KQXujtF7CrqTz9I3SX7Y-1" vertex="1">
                    <mxGeometry x="1920" y="920" width="120" height="40" as="geometry"/>
                </mxCell>
                <mxCell id="n7geHH85YBCkHhaIXiWx-78" value="Giải 7" style="text;html=1;strokeColor=none;fillColor=none;align=left;verticalAlign=middle;whiteSpace=wrap;rounded=0;fontSize=18;fontStyle=1" parent="KQXujtF7CrqTz9I3SX7Y-1" vertex="1">
                    <mxGeometry x="1400" y="1005" width="120" height="30" as="geometry"/>
                </mxCell>
                <mxCell id="n7geHH85YBCkHhaIXiWx-79" value="1" style="rounded=1;whiteSpace=wrap;html=1;fontSize=18;fillColor=none;" parent="KQXujtF7CrqTz9I3SX7Y-1" vertex="1">
                    <mxGeometry x="1600" y="1000" width="120" height="40" as="geometry"/>
                </mxCell>
                <mxCell id="n7geHH85YBCkHhaIXiWx-86" value="3" style="rounded=1;whiteSpace=wrap;html=1;fontSize=18;fillColor=none;" parent="KQXujtF7CrqTz9I3SX7Y-1" vertex="1">
                    <mxGeometry x="1920" y="600" width="120" height="40" as="geometry"/>
                </mxCell>
                <mxCell id="n7geHH85YBCkHhaIXiWx-87" value="6" style="rounded=1;whiteSpace=wrap;html=1;fontSize=18;fillColor=none;" parent="KQXujtF7CrqTz9I3SX7Y-1" vertex="1">
                    <mxGeometry x="1920" y="680" width="120" height="40" as="geometry"/>
                </mxCell>
                <mxCell id="n7geHH85YBCkHhaIXiWx-88" value="7" style="rounded=1;whiteSpace=wrap;html=1;fontSize=18;fillColor=none;" parent="KQXujtF7CrqTz9I3SX7Y-1" vertex="1">
                    <mxGeometry x="1600" y="760" width="120" height="40" as="geometry"/>
                </mxCell>
                <mxCell id="n7geHH85YBCkHhaIXiWx-89" value="Giải 8" style="text;html=1;strokeColor=none;fillColor=none;align=left;verticalAlign=middle;whiteSpace=wrap;rounded=0;fontSize=18;fontStyle=1" parent="KQXujtF7CrqTz9I3SX7Y-1" vertex="1">
                    <mxGeometry x="1400" y="1085" width="120" height="30" as="geometry"/>
                </mxCell>
                <mxCell id="n7geHH85YBCkHhaIXiWx-90" value="1" style="rounded=1;whiteSpace=wrap;html=1;fontSize=18;fillColor=none;" parent="KQXujtF7CrqTz9I3SX7Y-1" vertex="1">
                    <mxGeometry x="1600" y="1080" width="120" height="40" as="geometry"/>
                </mxCell>
                <mxCell id="3FZWS1wWWFqGqf6MfTLa-7" style="edgeStyle=none;html=1;fontColor=#FAFAFA;" edge="1" parent="KQXujtF7CrqTz9I3SX7Y-1" source="n7geHH85YBCkHhaIXiWx-93" target="n7geHH85YBCkHhaIXiWx-115">
                    <mxGeometry relative="1" as="geometry"/>
                </mxCell>
                <mxCell id="n7geHH85YBCkHhaIXiWx-93" value="Tạo mới" style="rounded=1;whiteSpace=wrap;html=1;fontSize=18;fillColor=#0000FF;strokeColor=#3333FF;" parent="KQXujtF7CrqTz9I3SX7Y-1" vertex="1">
                    <mxGeometry x="1600" y="1160" width="120" height="40" as="geometry"/>
                </mxCell>
                <mxCell id="n7geHH85YBCkHhaIXiWx-94" value="" style="endArrow=classic;html=1;fontSize=18;exitX=1;exitY=0;exitDx=0;exitDy=0;entryX=0;entryY=0.5;entryDx=0;entryDy=0;" parent="KQXujtF7CrqTz9I3SX7Y-1" source="n7geHH85YBCkHhaIXiWx-1" edge="1" target="n7geHH85YBCkHhaIXiWx-95">
                    <mxGeometry width="50" height="50" relative="1" as="geometry">
                        <mxPoint x="660" y="120" as="sourcePoint"/>
                        <mxPoint x="970" y="80" as="targetPoint"/>
                    </mxGeometry>
                </mxCell>
                <mxCell id="n7geHH85YBCkHhaIXiWx-95" value="Lọc ra các tỉnh miền Bắc" style="text;html=1;strokeColor=none;fillColor=none;align=left;verticalAlign=middle;whiteSpace=wrap;rounded=0;fontSize=18;" parent="KQXujtF7CrqTz9I3SX7Y-1" vertex="1">
                    <mxGeometry x="960" y="90" width="260" height="30" as="geometry"/>
                </mxCell>
                <mxCell id="n7geHH85YBCkHhaIXiWx-97" value="Nhập ngày xổ số" style="text;html=1;strokeColor=none;fillColor=none;align=left;verticalAlign=middle;whiteSpace=wrap;rounded=0;fontSize=18;" parent="KQXujtF7CrqTz9I3SX7Y-1" vertex="1">
                    <mxGeometry x="960" y="200" width="150" height="30" as="geometry"/>
                </mxCell>
                <mxCell id="n7geHH85YBCkHhaIXiWx-115" value="Submit form để đưa dữ liệu vào database" style="text;html=1;strokeColor=none;fillColor=none;align=center;verticalAlign=middle;whiteSpace=wrap;rounded=0;fontSize=18;" parent="KQXujtF7CrqTz9I3SX7Y-1" vertex="1">
                    <mxGeometry x="1550" y="1360" width="220" height="65" as="geometry"/>
                </mxCell>
                <mxCell id="xm9dw9YB-WdBqIirziVC-1" style="edgeStyle=none;html=1;entryX=0;entryY=0.5;entryDx=0;entryDy=0;fontSize=12;fontColor=#FAFAFA;" edge="1" parent="KQXujtF7CrqTz9I3SX7Y-1" source="3FZWS1wWWFqGqf6MfTLa-0" target="xm9dw9YB-WdBqIirziVC-0">
                    <mxGeometry relative="1" as="geometry"/>
                </mxCell>
                <mxCell id="3FZWS1wWWFqGqf6MfTLa-0" value="Select box" style="rounded=1;whiteSpace=wrap;html=1;fontSize=18;fillColor=none;" vertex="1" parent="KQXujtF7CrqTz9I3SX7Y-1">
                    <mxGeometry x="360" y="40" width="280" height="40" as="geometry"/>
                </mxCell>
                <mxCell id="3FZWS1wWWFqGqf6MfTLa-1" value="&lt;b&gt;Chọn miền&lt;/b&gt;" style="text;html=1;strokeColor=none;fillColor=none;align=left;verticalAlign=middle;whiteSpace=wrap;rounded=0;fontSize=18;" vertex="1" parent="KQXujtF7CrqTz9I3SX7Y-1">
                    <mxGeometry x="160" y="45" width="100" height="30" as="geometry"/>
                </mxCell>
                <mxCell id="3FZWS1wWWFqGqf6MfTLa-4" value="" style="rounded=0;whiteSpace=wrap;html=1;" vertex="1" parent="KQXujtF7CrqTz9I3SX7Y-1">
                    <mxGeometry x="120" y="-80" width="720" height="80" as="geometry"/>
                </mxCell>
                <mxCell id="n7geHH85YBCkHhaIXiWx-42" value="&lt;b&gt;&lt;font color=&quot;#fafafa&quot;&gt;THÊM VÉ SỐ MIỀN BẮC&lt;/font&gt;&lt;/b&gt;" style="text;html=1;strokeColor=none;fillColor=none;align=left;verticalAlign=middle;whiteSpace=wrap;rounded=0;fontSize=18;" parent="KQXujtF7CrqTz9I3SX7Y-1" vertex="1">
                    <mxGeometry x="160" y="-55" width="240" height="30" as="geometry"/>
                </mxCell>
                <mxCell id="3FZWS1wWWFqGqf6MfTLa-9" style="edgeStyle=none;html=1;entryX=0.5;entryY=0;entryDx=0;entryDy=0;fontColor=#FAFAFA;" edge="1" parent="KQXujtF7CrqTz9I3SX7Y-1" source="3FZWS1wWWFqGqf6MfTLa-5" target="3FZWS1wWWFqGqf6MfTLa-8">
                    <mxGeometry relative="1" as="geometry"/>
                </mxCell>
                <mxCell id="3FZWS1wWWFqGqf6MfTLa-5" value="Hủy" style="rounded=1;whiteSpace=wrap;html=1;fontSize=18;fillColor=#999999;" vertex="1" parent="KQXujtF7CrqTz9I3SX7Y-1">
                    <mxGeometry x="1740" y="1160" width="120" height="40" as="geometry"/>
                </mxCell>
                <mxCell id="3FZWS1wWWFqGqf6MfTLa-13" style="edgeStyle=none;html=1;entryX=0.5;entryY=0;entryDx=0;entryDy=0;fontSize=18;fontColor=#FAFAFA;" edge="1" parent="KQXujtF7CrqTz9I3SX7Y-1" source="3FZWS1wWWFqGqf6MfTLa-6" target="3FZWS1wWWFqGqf6MfTLa-12">
                    <mxGeometry relative="1" as="geometry"/>
                </mxCell>
                <mxCell id="3FZWS1wWWFqGqf6MfTLa-6" value="Reset" style="rounded=1;whiteSpace=wrap;html=1;fontSize=18;fillColor=#FF0000;strokeColor=#FF0000;" vertex="1" parent="KQXujtF7CrqTz9I3SX7Y-1">
                    <mxGeometry x="1880" y="1160" width="120" height="40" as="geometry"/>
                </mxCell>
                <mxCell id="3FZWS1wWWFqGqf6MfTLa-8" value="&lt;font style=&quot;font-size: 18px&quot;&gt;Hủy đóng modal tạo lottery&lt;/font&gt;" style="text;html=1;strokeColor=none;fillColor=none;align=center;verticalAlign=middle;whiteSpace=wrap;rounded=0;fontColor=#FAFAFA;" vertex="1" parent="KQXujtF7CrqTz9I3SX7Y-1">
                    <mxGeometry x="1800" y="1377.5" width="170" height="30" as="geometry"/>
                </mxCell>
                <mxCell id="3FZWS1wWWFqGqf6MfTLa-12" value="Reset lại tất cả các dữ liệu trong các Input" style="text;html=1;strokeColor=none;fillColor=none;align=center;verticalAlign=middle;whiteSpace=wrap;rounded=0;fontSize=18;fontColor=#FAFAFA;" vertex="1" parent="KQXujtF7CrqTz9I3SX7Y-1">
                    <mxGeometry x="2090" y="1360" width="210" height="30" as="geometry"/>
                </mxCell>
                <mxCell id="3FZWS1wWWFqGqf6MfTLa-18" value="&lt;font style=&quot;font-size: 24px&quot;&gt;Modal thêm/cập nhật lottery&lt;/font&gt;" style="text;html=1;strokeColor=none;fillColor=none;align=center;verticalAlign=middle;whiteSpace=wrap;rounded=0;fontSize=18;fontColor=#FAFAFA;" vertex="1" parent="KQXujtF7CrqTz9I3SX7Y-1">
                    <mxGeometry x="310" y="-240" width="330" height="70" as="geometry"/>
                </mxCell>
                <mxCell id="3FZWS1wWWFqGqf6MfTLa-21" style="edgeStyle=none;html=1;entryX=0.5;entryY=1;entryDx=0;entryDy=0;fontSize=18;fontColor=#FAFAFA;" edge="1" target="3FZWS1wWWFqGqf6MfTLa-24" parent="KQXujtF7CrqTz9I3SX7Y-1">
                    <mxGeometry relative="1" as="geometry">
                        <mxPoint x="1715.566037735849" y="-80" as="sourcePoint"/>
                    </mxGeometry>
                </mxCell>
                <mxCell id="3FZWS1wWWFqGqf6MfTLa-22" value="" style="rounded=0;whiteSpace=wrap;html=1;" vertex="1" parent="KQXujtF7CrqTz9I3SX7Y-1">
                    <mxGeometry x="1360" y="-80" width="720" height="80" as="geometry"/>
                </mxCell>
                <mxCell id="3FZWS1wWWFqGqf6MfTLa-23" value="&lt;b&gt;&lt;font color=&quot;#fafafa&quot;&gt;THÊM VÉ SỐ MIỀN NAM &amp;amp; MIỀN TRUNG&lt;/font&gt;&lt;/b&gt;" style="text;html=1;strokeColor=none;fillColor=none;align=left;verticalAlign=middle;whiteSpace=wrap;rounded=0;fontSize=18;" vertex="1" parent="KQXujtF7CrqTz9I3SX7Y-1">
                    <mxGeometry x="1400" y="-55" width="350" height="30" as="geometry"/>
                </mxCell>
                <mxCell id="3FZWS1wWWFqGqf6MfTLa-24" value="&lt;font style=&quot;font-size: 24px&quot;&gt;Modal thêm/cập nhật lottery&lt;/font&gt;" style="text;html=1;strokeColor=none;fillColor=none;align=center;verticalAlign=middle;whiteSpace=wrap;rounded=0;fontSize=18;fontColor=#FAFAFA;" vertex="1" parent="KQXujtF7CrqTz9I3SX7Y-1">
                    <mxGeometry x="1550" y="-240" width="330" height="70" as="geometry"/>
                </mxCell>
                <mxCell id="3FZWS1wWWFqGqf6MfTLa-25" style="edgeStyle=none;html=1;fontColor=#FAFAFA;" edge="1" source="3FZWS1wWWFqGqf6MfTLa-26" target="3FZWS1wWWFqGqf6MfTLa-27" parent="KQXujtF7CrqTz9I3SX7Y-1">
                    <mxGeometry relative="1" as="geometry"/>
                </mxCell>
                <mxCell id="3FZWS1wWWFqGqf6MfTLa-26" value="Tạo mới" style="rounded=1;whiteSpace=wrap;html=1;fontSize=18;fillColor=#0000FF;strokeColor=#3333FF;" vertex="1" parent="KQXujtF7CrqTz9I3SX7Y-1">
                    <mxGeometry x="360" y="1240" width="120" height="40" as="geometry"/>
                </mxCell>
                <mxCell id="3FZWS1wWWFqGqf6MfTLa-27" value="Submit form để đưa dữ liệu vào database" style="text;html=1;strokeColor=none;fillColor=none;align=center;verticalAlign=middle;whiteSpace=wrap;rounded=0;fontSize=18;" vertex="1" parent="KQXujtF7CrqTz9I3SX7Y-1">
                    <mxGeometry x="310" y="1440" width="220" height="65" as="geometry"/>
                </mxCell>
                <mxCell id="3FZWS1wWWFqGqf6MfTLa-28" style="edgeStyle=none;html=1;entryX=0.5;entryY=0;entryDx=0;entryDy=0;fontColor=#FAFAFA;" edge="1" source="3FZWS1wWWFqGqf6MfTLa-29" target="3FZWS1wWWFqGqf6MfTLa-32" parent="KQXujtF7CrqTz9I3SX7Y-1">
                    <mxGeometry relative="1" as="geometry"/>
                </mxCell>
                <mxCell id="3FZWS1wWWFqGqf6MfTLa-29" value="Hủy" style="rounded=1;whiteSpace=wrap;html=1;fontSize=18;fillColor=#999999;" vertex="1" parent="KQXujtF7CrqTz9I3SX7Y-1">
                    <mxGeometry x="500" y="1240" width="120" height="40" as="geometry"/>
                </mxCell>
                <mxCell id="3FZWS1wWWFqGqf6MfTLa-30" style="edgeStyle=none;html=1;entryX=0.5;entryY=0;entryDx=0;entryDy=0;fontSize=18;fontColor=#FAFAFA;" edge="1" source="3FZWS1wWWFqGqf6MfTLa-31" parent="KQXujtF7CrqTz9I3SX7Y-1">
                    <mxGeometry relative="1" as="geometry">
                        <mxPoint x="955" y="1440" as="targetPoint"/>
                    </mxGeometry>
                </mxCell>
                <mxCell id="3FZWS1wWWFqGqf6MfTLa-31" value="Reset" style="rounded=1;whiteSpace=wrap;html=1;fontSize=18;fillColor=#FF0000;strokeColor=#FF0000;" vertex="1" parent="KQXujtF7CrqTz9I3SX7Y-1">
                    <mxGeometry x="640" y="1240" width="120" height="40" as="geometry"/>
                </mxCell>
                <mxCell id="3FZWS1wWWFqGqf6MfTLa-32" value="&lt;font style=&quot;font-size: 18px&quot;&gt;Hủy đóng modal tạo lottery&lt;/font&gt;" style="text;html=1;strokeColor=none;fillColor=none;align=center;verticalAlign=middle;whiteSpace=wrap;rounded=0;fontColor=#FAFAFA;" vertex="1" parent="KQXujtF7CrqTz9I3SX7Y-1">
                    <mxGeometry x="560" y="1457.5" width="170" height="30" as="geometry"/>
                </mxCell>
                <mxCell id="3FZWS1wWWFqGqf6MfTLa-36" value="Select box" style="rounded=1;whiteSpace=wrap;html=1;fontSize=18;fillColor=none;" vertex="1" parent="KQXujtF7CrqTz9I3SX7Y-1">
                    <mxGeometry x="1600" y="40" width="280" height="40" as="geometry"/>
                </mxCell>
                <mxCell id="3FZWS1wWWFqGqf6MfTLa-37" value="&lt;b&gt;Chọn miền&lt;/b&gt;" style="text;html=1;strokeColor=none;fillColor=none;align=left;verticalAlign=middle;whiteSpace=wrap;rounded=0;fontSize=18;" vertex="1" parent="KQXujtF7CrqTz9I3SX7Y-1">
                    <mxGeometry x="1400" y="45" width="100" height="30" as="geometry"/>
                </mxCell>
                <mxCell id="xm9dw9YB-WdBqIirziVC-0" value="Hiển thị các miền: Bắc, Trung và Nam" style="text;html=1;strokeColor=none;fillColor=none;align=left;verticalAlign=middle;whiteSpace=wrap;rounded=0;fontSize=18;" vertex="1" parent="KQXujtF7CrqTz9I3SX7Y-1">
                    <mxGeometry x="960" y="45" width="310" height="30" as="geometry"/>
                </mxCell>
                <mxCell id="xm9dw9YB-WdBqIirziVC-2" value="Nhập số: 5 số, không âm" style="text;html=1;strokeColor=none;fillColor=none;align=left;verticalAlign=middle;whiteSpace=wrap;rounded=0;fontSize=18;" vertex="1" parent="KQXujtF7CrqTz9I3SX7Y-1">
                    <mxGeometry x="960" y="450" width="260" height="30" as="geometry"/>
                </mxCell>
                <mxCell id="xm9dw9YB-WdBqIirziVC-9" value="Nhập số: 4 số, không âm" style="text;html=1;strokeColor=none;fillColor=none;align=left;verticalAlign=middle;whiteSpace=wrap;rounded=0;fontSize=18;" vertex="1" parent="KQXujtF7CrqTz9I3SX7Y-1">
                    <mxGeometry x="960" y="845" width="260" height="30" as="geometry"/>
                </mxCell>
                <mxCell id="xm9dw9YB-WdBqIirziVC-13" value="Nhập số: 3 số, không âm" style="text;html=1;strokeColor=none;fillColor=none;align=left;verticalAlign=middle;whiteSpace=wrap;rounded=0;fontSize=18;" vertex="1" parent="KQXujtF7CrqTz9I3SX7Y-1">
                    <mxGeometry x="960" y="1085" width="260" height="30" as="geometry"/>
                </mxCell>
            </root>
        </mxGraphModel>
    </diagram>
    <diagram id="3V5uPwqLXvbIvjYr3kgc" name="Lottery Manager">
        <mxGraphModel dx="1131" dy="1763" grid="1" gridSize="10" guides="1" tooltips="1" connect="1" arrows="1" fold="1" page="1" pageScale="1" pageWidth="850" pageHeight="1100" math="0" shadow="0">
            <root>
                <mxCell id="3Vq8_8EfKO2OSyv36tWx-0"/>
                <mxCell id="3Vq8_8EfKO2OSyv36tWx-1" parent="3Vq8_8EfKO2OSyv36tWx-0"/>
                <mxCell id="lRFGvElKCejJMtV9lCyO-1" style="edgeStyle=none;html=1;entryX=0.5;entryY=1;entryDx=0;entryDy=0;fontSize=12;fontColor=#FAFAFA;" edge="1" parent="3Vq8_8EfKO2OSyv36tWx-1" source="uP0CZiIDzuav2F1L8dCo-1" target="lRFGvElKCejJMtV9lCyO-0">
                    <mxGeometry relative="1" as="geometry"/>
                </mxCell>
                <mxCell id="uP0CZiIDzuav2F1L8dCo-1" value="&lt;font size=&quot;3&quot;&gt;Tạo xổ số mới&lt;/font&gt;" style="rounded=0;whiteSpace=wrap;html=1;fontSize=24;fontColor=#FAFAFA;strokeColor=#FFFFFF;fillColor=#0000FF;" vertex="1" parent="3Vq8_8EfKO2OSyv36tWx-1">
                    <mxGeometry x="120" y="80" width="160" height="40" as="geometry"/>
                </mxCell>
                <mxCell id="uP0CZiIDzuav2F1L8dCo-3" value="" style="rounded=0;whiteSpace=wrap;html=1;fontSize=12;fontColor=#FAFAFA;strokeColor=#FFFFFF;fillColor=none;" vertex="1" parent="3Vq8_8EfKO2OSyv36tWx-1">
                    <mxGeometry x="120" y="200" width="840" height="550" as="geometry"/>
                </mxCell>
                <mxCell id="lRFGvElKCejJMtV9lCyO-3" style="edgeStyle=none;html=1;entryX=0.5;entryY=1;entryDx=0;entryDy=0;fontSize=12;fontColor=#FAFAFA;" edge="1" parent="3Vq8_8EfKO2OSyv36tWx-1" source="uP0CZiIDzuav2F1L8dCo-5" target="lRFGvElKCejJMtV9lCyO-2">
                    <mxGeometry relative="1" as="geometry"/>
                </mxCell>
                <mxCell id="uP0CZiIDzuav2F1L8dCo-5" value="Miền Bắc" style="rounded=0;whiteSpace=wrap;html=1;fontSize=12;fontColor=#FAFAFA;strokeColor=#FFFFFF;fillColor=none;" vertex="1" parent="3Vq8_8EfKO2OSyv36tWx-1">
                    <mxGeometry x="120" y="160" width="120" height="40" as="geometry"/>
                </mxCell>
                <mxCell id="lRFGvElKCejJMtV9lCyO-4" style="edgeStyle=none;html=1;entryX=0.5;entryY=1;entryDx=0;entryDy=0;fontSize=12;fontColor=#FAFAFA;" edge="1" parent="3Vq8_8EfKO2OSyv36tWx-1" source="uP0CZiIDzuav2F1L8dCo-6" target="lRFGvElKCejJMtV9lCyO-2">
                    <mxGeometry relative="1" as="geometry"/>
                </mxCell>
                <mxCell id="uP0CZiIDzuav2F1L8dCo-6" value="Miền Trung" style="rounded=0;whiteSpace=wrap;html=1;fontSize=12;fontColor=#FAFAFA;strokeColor=#FFFFFF;fillColor=none;" vertex="1" parent="3Vq8_8EfKO2OSyv36tWx-1">
                    <mxGeometry x="240" y="160" width="120" height="40" as="geometry"/>
                </mxCell>
                <mxCell id="lRFGvElKCejJMtV9lCyO-5" style="edgeStyle=none;html=1;entryX=0.5;entryY=1;entryDx=0;entryDy=0;fontSize=12;fontColor=#FAFAFA;" edge="1" parent="3Vq8_8EfKO2OSyv36tWx-1" source="uP0CZiIDzuav2F1L8dCo-7" target="lRFGvElKCejJMtV9lCyO-2">
                    <mxGeometry relative="1" as="geometry"/>
                </mxCell>
                <mxCell id="uP0CZiIDzuav2F1L8dCo-7" value="Miền Nam" style="rounded=0;whiteSpace=wrap;html=1;fontSize=12;fontColor=#FAFAFA;strokeColor=#FFFFFF;fillColor=none;" vertex="1" parent="3Vq8_8EfKO2OSyv36tWx-1">
                    <mxGeometry x="360" y="160" width="120" height="40" as="geometry"/>
                </mxCell>
                <mxCell id="uP0CZiIDzuav2F1L8dCo-9" value="Miền Bắc" style="rounded=1;whiteSpace=wrap;html=1;fontSize=12;fontColor=#FAFAFA;strokeColor=#FFFFFF;fillColor=none;" vertex="1" parent="3Vq8_8EfKO2OSyv36tWx-1">
                    <mxGeometry x="160" y="240" width="160" height="40" as="geometry"/>
                </mxCell>
                <mxCell id="uP0CZiIDzuav2F1L8dCo-10" value="Tỉnh 1" style="rounded=1;whiteSpace=wrap;html=1;fontSize=12;fontColor=#FAFAFA;strokeColor=#FFFFFF;fillColor=#6666FF;" vertex="1" parent="3Vq8_8EfKO2OSyv36tWx-1">
                    <mxGeometry x="360" y="240" width="160" height="40" as="geometry"/>
                </mxCell>
                <mxCell id="uP0CZiIDzuav2F1L8dCo-11" value="&lt;span&gt;Tỉnh 2&lt;/span&gt;" style="rounded=1;whiteSpace=wrap;html=1;fontSize=12;fontColor=#FAFAFA;strokeColor=#FFFFFF;fillColor=#6666FF;" vertex="1" parent="3Vq8_8EfKO2OSyv36tWx-1">
                    <mxGeometry x="560" y="240" width="160" height="40" as="geometry"/>
                </mxCell>
                <mxCell id="lRFGvElKCejJMtV9lCyO-11" style="edgeStyle=none;html=1;entryX=0;entryY=0.5;entryDx=0;entryDy=0;fontSize=12;fontColor=#FAFAFA;" edge="1" parent="3Vq8_8EfKO2OSyv36tWx-1" source="uP0CZiIDzuav2F1L8dCo-12" target="lRFGvElKCejJMtV9lCyO-8">
                    <mxGeometry relative="1" as="geometry"/>
                </mxCell>
                <mxCell id="uP0CZiIDzuav2F1L8dCo-12" value="&lt;span&gt;Tỉnh 3&lt;/span&gt;" style="rounded=1;whiteSpace=wrap;html=1;fontSize=12;fontColor=#FAFAFA;strokeColor=#FFFFFF;fillColor=#6666FF;" vertex="1" parent="3Vq8_8EfKO2OSyv36tWx-1">
                    <mxGeometry x="760" y="240" width="160" height="40" as="geometry"/>
                </mxCell>
                <mxCell id="uP0CZiIDzuav2F1L8dCo-13" value="&lt;span&gt;Tỉnh 4&lt;/span&gt;" style="rounded=1;whiteSpace=wrap;html=1;fontSize=12;fontColor=#FAFAFA;strokeColor=#FFFFFF;fillColor=#6666FF;" vertex="1" parent="3Vq8_8EfKO2OSyv36tWx-1">
                    <mxGeometry x="160" y="320" width="160" height="40" as="geometry"/>
                </mxCell>
                <mxCell id="uP0CZiIDzuav2F1L8dCo-14" value="&lt;span&gt;Tỉnh 5&lt;/span&gt;" style="rounded=1;whiteSpace=wrap;html=1;fontSize=12;fontColor=#FAFAFA;strokeColor=#FFFFFF;fillColor=#6666FF;" vertex="1" parent="3Vq8_8EfKO2OSyv36tWx-1">
                    <mxGeometry x="360" y="320" width="160" height="40" as="geometry"/>
                </mxCell>
                <mxCell id="uP0CZiIDzuav2F1L8dCo-15" value="&lt;span&gt;Tỉnh 6&lt;/span&gt;" style="rounded=1;whiteSpace=wrap;html=1;fontSize=12;fontColor=#FAFAFA;strokeColor=#FFFFFF;fillColor=#6666FF;" vertex="1" parent="3Vq8_8EfKO2OSyv36tWx-1">
                    <mxGeometry x="560" y="320" width="160" height="40" as="geometry"/>
                </mxCell>
                <mxCell id="lRFGvElKCejJMtV9lCyO-12" style="edgeStyle=none;html=1;entryX=0;entryY=0.5;entryDx=0;entryDy=0;fontSize=12;fontColor=#FAFAFA;" edge="1" parent="3Vq8_8EfKO2OSyv36tWx-1" source="uP0CZiIDzuav2F1L8dCo-16" target="lRFGvElKCejJMtV9lCyO-8">
                    <mxGeometry relative="1" as="geometry"/>
                </mxCell>
                <mxCell id="uP0CZiIDzuav2F1L8dCo-16" value="&lt;span&gt;Tỉnh 7&lt;/span&gt;" style="rounded=1;whiteSpace=wrap;html=1;fontSize=12;fontColor=#FAFAFA;strokeColor=#FFFFFF;fillColor=#6666FF;" vertex="1" parent="3Vq8_8EfKO2OSyv36tWx-1">
                    <mxGeometry x="760" y="320" width="160" height="40" as="geometry"/>
                </mxCell>
                <mxCell id="uP0CZiIDzuav2F1L8dCo-23" value="Tỉnh Thành" style="rounded=0;whiteSpace=wrap;html=1;fontSize=12;fontColor=#FAFAFA;strokeColor=#FFFFFF;fillColor=none;" vertex="1" parent="3Vq8_8EfKO2OSyv36tWx-1">
                    <mxGeometry x="240" y="480" width="160" height="40" as="geometry"/>
                </mxCell>
                <mxCell id="uP0CZiIDzuav2F1L8dCo-24" value="Ngày" style="rounded=0;whiteSpace=wrap;html=1;fontSize=12;fontColor=#FAFAFA;strokeColor=#FFFFFF;fillColor=none;" vertex="1" parent="3Vq8_8EfKO2OSyv36tWx-1">
                    <mxGeometry x="400" y="480" width="160" height="40" as="geometry"/>
                </mxCell>
                <mxCell id="uP0CZiIDzuav2F1L8dCo-25" value="Giải Đặc Biệt" style="rounded=0;whiteSpace=wrap;html=1;fontSize=12;fontColor=#FAFAFA;strokeColor=#FFFFFF;fillColor=none;" vertex="1" parent="3Vq8_8EfKO2OSyv36tWx-1">
                    <mxGeometry x="560" y="480" width="160" height="40" as="geometry"/>
                </mxCell>
                <mxCell id="uP0CZiIDzuav2F1L8dCo-26" value="#" style="rounded=0;whiteSpace=wrap;html=1;fontSize=12;fontColor=#FAFAFA;strokeColor=#FFFFFF;fillColor=none;" vertex="1" parent="3Vq8_8EfKO2OSyv36tWx-1">
                    <mxGeometry x="160" y="480" width="80" height="40" as="geometry"/>
                </mxCell>
                <mxCell id="uP0CZiIDzuav2F1L8dCo-27" value="1" style="rounded=0;whiteSpace=wrap;html=1;fontSize=12;fontColor=#FAFAFA;strokeColor=#FFFFFF;fillColor=none;" vertex="1" parent="3Vq8_8EfKO2OSyv36tWx-1">
                    <mxGeometry x="160" y="520" width="80" height="40" as="geometry"/>
                </mxCell>
                <mxCell id="uP0CZiIDzuav2F1L8dCo-28" value="2" style="rounded=0;whiteSpace=wrap;html=1;fontSize=12;fontColor=#FAFAFA;strokeColor=#FFFFFF;fillColor=none;" vertex="1" parent="3Vq8_8EfKO2OSyv36tWx-1">
                    <mxGeometry x="160" y="560" width="80" height="40" as="geometry"/>
                </mxCell>
                <mxCell id="uP0CZiIDzuav2F1L8dCo-29" value="3" style="rounded=0;whiteSpace=wrap;html=1;fontSize=12;fontColor=#FAFAFA;strokeColor=#FFFFFF;fillColor=none;" vertex="1" parent="3Vq8_8EfKO2OSyv36tWx-1">
                    <mxGeometry x="160" y="600" width="80" height="40" as="geometry"/>
                </mxCell>
                <mxCell id="uP0CZiIDzuav2F1L8dCo-30" value="" style="rounded=0;whiteSpace=wrap;html=1;fontSize=12;fontColor=#FAFAFA;strokeColor=#FFFFFF;fillColor=none;" vertex="1" parent="3Vq8_8EfKO2OSyv36tWx-1">
                    <mxGeometry x="720" y="480" width="200" height="40" as="geometry"/>
                </mxCell>
                <mxCell id="uP0CZiIDzuav2F1L8dCo-31" value="4" style="rounded=0;whiteSpace=wrap;html=1;fontSize=12;fontColor=#FAFAFA;strokeColor=#FFFFFF;fillColor=none;" vertex="1" parent="3Vq8_8EfKO2OSyv36tWx-1">
                    <mxGeometry x="160" y="640" width="80" height="40" as="geometry"/>
                </mxCell>
                <mxCell id="uP0CZiIDzuav2F1L8dCo-32" value="5" style="rounded=0;whiteSpace=wrap;html=1;fontSize=12;fontColor=#FAFAFA;strokeColor=#FFFFFF;fillColor=none;" vertex="1" parent="3Vq8_8EfKO2OSyv36tWx-1">
                    <mxGeometry x="160" y="680" width="80" height="40" as="geometry"/>
                </mxCell>
                <mxCell id="uP0CZiIDzuav2F1L8dCo-33" value="Tỉnh 1" style="rounded=0;whiteSpace=wrap;html=1;fontSize=12;fontColor=#FAFAFA;strokeColor=#FFFFFF;fillColor=none;" vertex="1" parent="3Vq8_8EfKO2OSyv36tWx-1">
                    <mxGeometry x="240" y="520" width="160" height="40" as="geometry"/>
                </mxCell>
                <mxCell id="uP0CZiIDzuav2F1L8dCo-34" value="22/02/2022" style="rounded=0;whiteSpace=wrap;html=1;fontSize=12;fontColor=#FAFAFA;strokeColor=#FFFFFF;fillColor=none;" vertex="1" parent="3Vq8_8EfKO2OSyv36tWx-1">
                    <mxGeometry x="400" y="520" width="160" height="40" as="geometry"/>
                </mxCell>
                <mxCell id="uP0CZiIDzuav2F1L8dCo-35" value="00000" style="rounded=0;whiteSpace=wrap;html=1;fontSize=12;fontColor=#FAFAFA;strokeColor=#FFFFFF;fillColor=none;" vertex="1" parent="3Vq8_8EfKO2OSyv36tWx-1">
                    <mxGeometry x="560" y="520" width="160" height="40" as="geometry"/>
                </mxCell>
                <mxCell id="uP0CZiIDzuav2F1L8dCo-36" value="" style="rounded=0;whiteSpace=wrap;html=1;fontSize=12;fontColor=#FAFAFA;strokeColor=#FFFFFF;fillColor=none;" vertex="1" parent="3Vq8_8EfKO2OSyv36tWx-1">
                    <mxGeometry x="720" y="520" width="200" height="40" as="geometry"/>
                </mxCell>
                <mxCell id="lRFGvElKCejJMtV9lCyO-22" style="edgeStyle=none;html=1;fontSize=12;fontColor=#FAFAFA;entryX=0;entryY=0.5;entryDx=0;entryDy=0;" edge="1" parent="3Vq8_8EfKO2OSyv36tWx-1" source="uP0CZiIDzuav2F1L8dCo-37" target="lRFGvElKCejJMtV9lCyO-19">
                    <mxGeometry relative="1" as="geometry">
                        <Array as="points">
                            <mxPoint x="910" y="470"/>
                        </Array>
                    </mxGeometry>
                </mxCell>
                <mxCell id="uP0CZiIDzuav2F1L8dCo-37" value="Cập nhật" style="rounded=1;whiteSpace=wrap;html=1;fontSize=12;fontColor=#FAFAFA;strokeColor=#FFFFFF;fillColor=#0000FF;" vertex="1" parent="3Vq8_8EfKO2OSyv36tWx-1">
                    <mxGeometry x="730" y="530" width="80" height="20" as="geometry"/>
                </mxCell>
                <mxCell id="lRFGvElKCejJMtV9lCyO-18" style="edgeStyle=none;html=1;fontSize=12;fontColor=#FAFAFA;" edge="1" parent="3Vq8_8EfKO2OSyv36tWx-1" source="uP0CZiIDzuav2F1L8dCo-38" target="lRFGvElKCejJMtV9lCyO-17">
                    <mxGeometry relative="1" as="geometry"/>
                </mxCell>
                <mxCell id="uP0CZiIDzuav2F1L8dCo-38" value="Xóa" style="rounded=1;whiteSpace=wrap;html=1;fontSize=12;fontColor=#FAFAFA;strokeColor=#FFFFFF;fillColor=#FF0000;" vertex="1" parent="3Vq8_8EfKO2OSyv36tWx-1">
                    <mxGeometry x="830" y="530" width="80" height="20" as="geometry"/>
                </mxCell>
                <mxCell id="uP0CZiIDzuav2F1L8dCo-39" value="Tỉnh 2" style="rounded=0;whiteSpace=wrap;html=1;fontSize=12;fontColor=#FAFAFA;strokeColor=#FFFFFF;fillColor=none;" vertex="1" parent="3Vq8_8EfKO2OSyv36tWx-1">
                    <mxGeometry x="240" y="560" width="160" height="40" as="geometry"/>
                </mxCell>
                <mxCell id="uP0CZiIDzuav2F1L8dCo-40" value="22/02/2022" style="rounded=0;whiteSpace=wrap;html=1;fontSize=12;fontColor=#FAFAFA;strokeColor=#FFFFFF;fillColor=none;" vertex="1" parent="3Vq8_8EfKO2OSyv36tWx-1">
                    <mxGeometry x="400" y="560" width="160" height="40" as="geometry"/>
                </mxCell>
                <mxCell id="uP0CZiIDzuav2F1L8dCo-41" value="00000" style="rounded=0;whiteSpace=wrap;html=1;fontSize=12;fontColor=#FAFAFA;strokeColor=#FFFFFF;fillColor=none;" vertex="1" parent="3Vq8_8EfKO2OSyv36tWx-1">
                    <mxGeometry x="560" y="560" width="160" height="40" as="geometry"/>
                </mxCell>
                <mxCell id="uP0CZiIDzuav2F1L8dCo-42" value="" style="rounded=0;whiteSpace=wrap;html=1;fontSize=12;fontColor=#FAFAFA;strokeColor=#FFFFFF;fillColor=none;" vertex="1" parent="3Vq8_8EfKO2OSyv36tWx-1">
                    <mxGeometry x="720" y="560" width="200" height="40" as="geometry"/>
                </mxCell>
                <mxCell id="uP0CZiIDzuav2F1L8dCo-43" value="Cập nhật" style="rounded=1;whiteSpace=wrap;html=1;fontSize=12;fontColor=#FAFAFA;strokeColor=#FFFFFF;fillColor=#0000FF;" vertex="1" parent="3Vq8_8EfKO2OSyv36tWx-1">
                    <mxGeometry x="730" y="570" width="80" height="20" as="geometry"/>
                </mxCell>
                <mxCell id="uP0CZiIDzuav2F1L8dCo-44" value="Xóa" style="rounded=1;whiteSpace=wrap;html=1;fontSize=12;fontColor=#FAFAFA;strokeColor=#FFFFFF;fillColor=#FF0000;" vertex="1" parent="3Vq8_8EfKO2OSyv36tWx-1">
                    <mxGeometry x="830" y="570" width="80" height="20" as="geometry"/>
                </mxCell>
                <mxCell id="uP0CZiIDzuav2F1L8dCo-45" value="Tỉnh 3" style="rounded=0;whiteSpace=wrap;html=1;fontSize=12;fontColor=#FAFAFA;strokeColor=#FFFFFF;fillColor=none;" vertex="1" parent="3Vq8_8EfKO2OSyv36tWx-1">
                    <mxGeometry x="240" y="600" width="160" height="40" as="geometry"/>
                </mxCell>
                <mxCell id="uP0CZiIDzuav2F1L8dCo-46" value="22/02/2022" style="rounded=0;whiteSpace=wrap;html=1;fontSize=12;fontColor=#FAFAFA;strokeColor=#FFFFFF;fillColor=none;" vertex="1" parent="3Vq8_8EfKO2OSyv36tWx-1">
                    <mxGeometry x="400" y="600" width="160" height="40" as="geometry"/>
                </mxCell>
                <mxCell id="uP0CZiIDzuav2F1L8dCo-47" value="00000" style="rounded=0;whiteSpace=wrap;html=1;fontSize=12;fontColor=#FAFAFA;strokeColor=#FFFFFF;fillColor=none;" vertex="1" parent="3Vq8_8EfKO2OSyv36tWx-1">
                    <mxGeometry x="560" y="600" width="160" height="40" as="geometry"/>
                </mxCell>
                <mxCell id="uP0CZiIDzuav2F1L8dCo-48" value="" style="rounded=0;whiteSpace=wrap;html=1;fontSize=12;fontColor=#FAFAFA;strokeColor=#FFFFFF;fillColor=none;" vertex="1" parent="3Vq8_8EfKO2OSyv36tWx-1">
                    <mxGeometry x="720" y="600" width="200" height="40" as="geometry"/>
                </mxCell>
                <mxCell id="uP0CZiIDzuav2F1L8dCo-49" value="Cập nhật" style="rounded=1;whiteSpace=wrap;html=1;fontSize=12;fontColor=#FAFAFA;strokeColor=#FFFFFF;fillColor=#0000FF;" vertex="1" parent="3Vq8_8EfKO2OSyv36tWx-1">
                    <mxGeometry x="730" y="610" width="80" height="20" as="geometry"/>
                </mxCell>
                <mxCell id="uP0CZiIDzuav2F1L8dCo-50" value="Xóa" style="rounded=1;whiteSpace=wrap;html=1;fontSize=12;fontColor=#FAFAFA;strokeColor=#FFFFFF;fillColor=#FF0000;" vertex="1" parent="3Vq8_8EfKO2OSyv36tWx-1">
                    <mxGeometry x="830" y="610" width="80" height="20" as="geometry"/>
                </mxCell>
                <mxCell id="uP0CZiIDzuav2F1L8dCo-51" value="Tỉnh 4" style="rounded=0;whiteSpace=wrap;html=1;fontSize=12;fontColor=#FAFAFA;strokeColor=#FFFFFF;fillColor=none;" vertex="1" parent="3Vq8_8EfKO2OSyv36tWx-1">
                    <mxGeometry x="240" y="640" width="160" height="40" as="geometry"/>
                </mxCell>
                <mxCell id="uP0CZiIDzuav2F1L8dCo-52" value="22/02/2022" style="rounded=0;whiteSpace=wrap;html=1;fontSize=12;fontColor=#FAFAFA;strokeColor=#FFFFFF;fillColor=none;" vertex="1" parent="3Vq8_8EfKO2OSyv36tWx-1">
                    <mxGeometry x="400" y="640" width="160" height="40" as="geometry"/>
                </mxCell>
                <mxCell id="uP0CZiIDzuav2F1L8dCo-53" value="00000" style="rounded=0;whiteSpace=wrap;html=1;fontSize=12;fontColor=#FAFAFA;strokeColor=#FFFFFF;fillColor=none;" vertex="1" parent="3Vq8_8EfKO2OSyv36tWx-1">
                    <mxGeometry x="560" y="640" width="160" height="40" as="geometry"/>
                </mxCell>
                <mxCell id="uP0CZiIDzuav2F1L8dCo-54" value="" style="rounded=0;whiteSpace=wrap;html=1;fontSize=12;fontColor=#FAFAFA;strokeColor=#FFFFFF;fillColor=none;" vertex="1" parent="3Vq8_8EfKO2OSyv36tWx-1">
                    <mxGeometry x="720" y="640" width="200" height="40" as="geometry"/>
                </mxCell>
                <mxCell id="uP0CZiIDzuav2F1L8dCo-55" value="Cập nhật" style="rounded=1;whiteSpace=wrap;html=1;fontSize=12;fontColor=#FAFAFA;strokeColor=#FFFFFF;fillColor=#0000FF;" vertex="1" parent="3Vq8_8EfKO2OSyv36tWx-1">
                    <mxGeometry x="730" y="650" width="80" height="20" as="geometry"/>
                </mxCell>
                <mxCell id="uP0CZiIDzuav2F1L8dCo-56" value="Xóa" style="rounded=1;whiteSpace=wrap;html=1;fontSize=12;fontColor=#FAFAFA;strokeColor=#FFFFFF;fillColor=#FF0000;" vertex="1" parent="3Vq8_8EfKO2OSyv36tWx-1">
                    <mxGeometry x="830" y="650" width="80" height="20" as="geometry"/>
                </mxCell>
                <mxCell id="uP0CZiIDzuav2F1L8dCo-57" value="Tỉnh 5" style="rounded=0;whiteSpace=wrap;html=1;fontSize=12;fontColor=#FAFAFA;strokeColor=#FFFFFF;fillColor=none;" vertex="1" parent="3Vq8_8EfKO2OSyv36tWx-1">
                    <mxGeometry x="240" y="680" width="160" height="40" as="geometry"/>
                </mxCell>
                <mxCell id="lRFGvElKCejJMtV9lCyO-6" style="edgeStyle=none;html=1;fontSize=12;fontColor=#FAFAFA;" edge="1" parent="3Vq8_8EfKO2OSyv36tWx-1" source="uP0CZiIDzuav2F1L8dCo-58" target="lRFGvElKCejJMtV9lCyO-7">
                    <mxGeometry relative="1" as="geometry">
                        <mxPoint x="460" y="820" as="targetPoint"/>
                    </mxGeometry>
                </mxCell>
                <mxCell id="uP0CZiIDzuav2F1L8dCo-58" value="22/02/2022" style="rounded=0;whiteSpace=wrap;html=1;fontSize=12;fontColor=#FAFAFA;strokeColor=#FFFFFF;fillColor=none;" vertex="1" parent="3Vq8_8EfKO2OSyv36tWx-1">
                    <mxGeometry x="400" y="680" width="160" height="40" as="geometry"/>
                </mxCell>
                <mxCell id="uP0CZiIDzuav2F1L8dCo-59" value="00000" style="rounded=0;whiteSpace=wrap;html=1;fontSize=12;fontColor=#FAFAFA;strokeColor=#FFFFFF;fillColor=none;" vertex="1" parent="3Vq8_8EfKO2OSyv36tWx-1">
                    <mxGeometry x="560" y="680" width="160" height="40" as="geometry"/>
                </mxCell>
                <mxCell id="uP0CZiIDzuav2F1L8dCo-60" value="" style="rounded=0;whiteSpace=wrap;html=1;fontSize=12;fontColor=#FAFAFA;strokeColor=#FFFFFF;fillColor=none;" vertex="1" parent="3Vq8_8EfKO2OSyv36tWx-1">
                    <mxGeometry x="720" y="680" width="200" height="40" as="geometry"/>
                </mxCell>
                <mxCell id="uP0CZiIDzuav2F1L8dCo-61" value="Cập nhật" style="rounded=1;whiteSpace=wrap;html=1;fontSize=12;fontColor=#FAFAFA;strokeColor=#FFFFFF;fillColor=#0000FF;" vertex="1" parent="3Vq8_8EfKO2OSyv36tWx-1">
                    <mxGeometry x="730" y="690" width="80" height="20" as="geometry"/>
                </mxCell>
                <mxCell id="uP0CZiIDzuav2F1L8dCo-62" value="Xóa" style="rounded=1;whiteSpace=wrap;html=1;fontSize=12;fontColor=#FAFAFA;strokeColor=#FFFFFF;fillColor=#FF0000;" vertex="1" parent="3Vq8_8EfKO2OSyv36tWx-1">
                    <mxGeometry x="830" y="690" width="80" height="20" as="geometry"/>
                </mxCell>
                <mxCell id="lRFGvElKCejJMtV9lCyO-16" style="edgeStyle=none;html=1;entryX=0;entryY=0.5;entryDx=0;entryDy=0;fontSize=12;fontColor=#FAFAFA;" edge="1" parent="3Vq8_8EfKO2OSyv36tWx-1" source="uP0CZiIDzuav2F1L8dCo-64" target="lRFGvElKCejJMtV9lCyO-15">
                    <mxGeometry relative="1" as="geometry"/>
                </mxCell>
                <mxCell id="uP0CZiIDzuav2F1L8dCo-64" value="Xóa nhiều" style="rounded=1;whiteSpace=wrap;html=1;fontSize=12;fontColor=#FAFAFA;strokeColor=#FFFFFF;fillColor=#FF0000;" vertex="1" parent="3Vq8_8EfKO2OSyv36tWx-1">
                    <mxGeometry x="800" y="400" width="120" height="40" as="geometry"/>
                </mxCell>
                <mxCell id="lRFGvElKCejJMtV9lCyO-0" value="Hiện ra modal thêm lottery" style="text;html=1;strokeColor=none;fillColor=none;align=center;verticalAlign=middle;whiteSpace=wrap;rounded=0;fontSize=12;fontColor=#FAFAFA;" vertex="1" parent="3Vq8_8EfKO2OSyv36tWx-1">
                    <mxGeometry x="170" y="-60" width="230" height="50" as="geometry"/>
                </mxCell>
                <mxCell id="lRFGvElKCejJMtV9lCyO-2" value="Các thanh tabs, khi click vào sẽ render ra các tỉnh và danh sách các lottery của vùng miền đó" style="text;html=1;strokeColor=none;fillColor=none;align=left;verticalAlign=middle;whiteSpace=wrap;rounded=0;fontSize=12;fontColor=#FAFAFA;" vertex="1" parent="3Vq8_8EfKO2OSyv36tWx-1">
                    <mxGeometry x="345" y="20" width="190" height="60" as="geometry"/>
                </mxCell>
                <mxCell id="lRFGvElKCejJMtV9lCyO-7" value="Danh sách các lottery của vùng miền hoặc tỉnh nhất định" style="text;html=1;strokeColor=none;fillColor=none;align=center;verticalAlign=middle;whiteSpace=wrap;rounded=0;fontSize=12;fontColor=#FAFAFA;" vertex="1" parent="3Vq8_8EfKO2OSyv36tWx-1">
                    <mxGeometry x="430" y="805" width="160" height="45" as="geometry"/>
                </mxCell>
                <mxCell id="lRFGvElKCejJMtV9lCyO-8" value="Danh sách các tỉnh của vùng miền nhất định. Khi click vào thì sẽ render ra các vé số của tỉnh đó ở phía dưới." style="text;html=1;strokeColor=none;fillColor=none;align=left;verticalAlign=middle;whiteSpace=wrap;rounded=0;fontSize=12;fontColor=#FAFAFA;" vertex="1" parent="3Vq8_8EfKO2OSyv36tWx-1">
                    <mxGeometry x="1040" y="280" width="160" height="70" as="geometry"/>
                </mxCell>
                <mxCell id="lRFGvElKCejJMtV9lCyO-15" value="Hiển thị chức năng xóa nhiều record cùng lúc" style="text;html=1;strokeColor=none;fillColor=none;align=left;verticalAlign=middle;whiteSpace=wrap;rounded=0;fontSize=12;fontColor=#FAFAFA;" vertex="1" parent="3Vq8_8EfKO2OSyv36tWx-1">
                    <mxGeometry x="1040" y="405" width="140" height="30" as="geometry"/>
                </mxCell>
                <mxCell id="lRFGvElKCejJMtV9lCyO-17" value="Khi click sẽ hiện ra modal xác nhận có muốn xóa hay ko?.Xóa record của row đó" style="text;html=1;strokeColor=none;fillColor=none;align=left;verticalAlign=middle;whiteSpace=wrap;rounded=0;fontSize=12;fontColor=#FAFAFA;" vertex="1" parent="3Vq8_8EfKO2OSyv36tWx-1">
                    <mxGeometry x="1040" y="570" width="160" height="70" as="geometry"/>
                </mxCell>
                <mxCell id="lRFGvElKCejJMtV9lCyO-19" value="Khi nhấn vào thì sẽ hiện ra modal cập nhật.Cập nhật record của row đó" style="text;html=1;strokeColor=none;fillColor=none;align=left;verticalAlign=middle;whiteSpace=wrap;rounded=0;fontSize=12;fontColor=#FAFAFA;" vertex="1" parent="3Vq8_8EfKO2OSyv36tWx-1">
                    <mxGeometry x="1040" y="460" width="160" height="60" as="geometry"/>
                </mxCell>
                <mxCell id="OM_pe5kgAsifeWVyGwZd-1" value="Text" style="text;html=1;strokeColor=none;fillColor=none;align=center;verticalAlign=middle;whiteSpace=wrap;rounded=0;fontSize=12;fontColor=#FAFAFA;" vertex="1" parent="3Vq8_8EfKO2OSyv36tWx-1">
                    <mxGeometry x="770" y="310" width="60" height="30" as="geometry"/>
                </mxCell>
            </root>
        </mxGraphModel>
    </diagram>
    <diagram id="6eBlc0Ai_aLOYlobtlDm" name="Province">
        <mxGraphModel dx="735" dy="431" grid="1" gridSize="10" guides="1" tooltips="1" connect="1" arrows="1" fold="1" page="1" pageScale="1" pageWidth="850" pageHeight="1100" math="0" shadow="0">
            <root>
                <mxCell id="xpEyb_dkoKYqvDqRN8BN-0"/>
                <mxCell id="xpEyb_dkoKYqvDqRN8BN-1" parent="xpEyb_dkoKYqvDqRN8BN-0"/>
                <mxCell id="2Hm9yBPVEckyxiUpafNW-0" value="" style="rounded=0;whiteSpace=wrap;html=1;fillColor=none;" parent="xpEyb_dkoKYqvDqRN8BN-1" vertex="1">
                    <mxGeometry x="40" y="170" width="880" height="790" as="geometry"/>
                </mxCell>
                <mxCell id="2Hm9yBPVEckyxiUpafNW-1" value="" style="rounded=0;whiteSpace=wrap;html=1;fillColor=none;" parent="xpEyb_dkoKYqvDqRN8BN-1" vertex="1">
                    <mxGeometry x="160" y="440" width="680" height="440" as="geometry"/>
                </mxCell>
                <mxCell id="2Hm9yBPVEckyxiUpafNW-2" value="&lt;font size=&quot;3&quot;&gt;KẾT QUẢ XỔ SỐ MỚI NHẤT&lt;/font&gt;" style="rounded=0;whiteSpace=wrap;html=1;fillColor=none;" parent="xpEyb_dkoKYqvDqRN8BN-1" vertex="1">
                    <mxGeometry x="160" y="440" width="680" height="80" as="geometry"/>
                </mxCell>
                <mxCell id="2Hm9yBPVEckyxiUpafNW-3" value="04348" style="rounded=0;whiteSpace=wrap;html=1;fontSize=18;fillColor=none;" parent="xpEyb_dkoKYqvDqRN8BN-1" vertex="1">
                    <mxGeometry x="280" y="520" width="560" height="40" as="geometry"/>
                </mxCell>
                <mxCell id="2Hm9yBPVEckyxiUpafNW-4" value="" style="rounded=0;whiteSpace=wrap;html=1;fontSize=18;fillColor=none;" parent="xpEyb_dkoKYqvDqRN8BN-1" vertex="1">
                    <mxGeometry x="160" y="520" width="120" height="360" as="geometry"/>
                </mxCell>
                <mxCell id="2Hm9yBPVEckyxiUpafNW-5" value="Đặc biệt" style="rounded=0;whiteSpace=wrap;html=1;fontSize=18;fillColor=none;" parent="xpEyb_dkoKYqvDqRN8BN-1" vertex="1">
                    <mxGeometry x="160" y="520" width="120" height="40" as="geometry"/>
                </mxCell>
                <mxCell id="2Hm9yBPVEckyxiUpafNW-6" value="1" style="rounded=0;whiteSpace=wrap;html=1;fontSize=18;fillColor=none;" parent="xpEyb_dkoKYqvDqRN8BN-1" vertex="1">
                    <mxGeometry x="160" y="560" width="120" height="40" as="geometry"/>
                </mxCell>
                <mxCell id="2Hm9yBPVEckyxiUpafNW-7" value="2" style="rounded=0;whiteSpace=wrap;html=1;fontSize=18;fillColor=none;" parent="xpEyb_dkoKYqvDqRN8BN-1" vertex="1">
                    <mxGeometry x="160" y="600" width="120" height="40" as="geometry"/>
                </mxCell>
                <mxCell id="2Hm9yBPVEckyxiUpafNW-8" value="3" style="rounded=0;whiteSpace=wrap;html=1;fontSize=18;fillColor=none;" parent="xpEyb_dkoKYqvDqRN8BN-1" vertex="1">
                    <mxGeometry x="160" y="640" width="120" height="40" as="geometry"/>
                </mxCell>
                <mxCell id="2Hm9yBPVEckyxiUpafNW-9" value="47440" style="rounded=0;whiteSpace=wrap;html=1;fontSize=18;fillColor=none;" parent="xpEyb_dkoKYqvDqRN8BN-1" vertex="1">
                    <mxGeometry x="280" y="560" width="560" height="40" as="geometry"/>
                </mxCell>
                <mxCell id="2Hm9yBPVEckyxiUpafNW-10" value="07110&amp;nbsp; &amp;nbsp; &amp;nbsp; &amp;nbsp; &amp;nbsp; &amp;nbsp; &amp;nbsp; &amp;nbsp; &amp;nbsp; &amp;nbsp; &amp;nbsp; &amp;nbsp; &amp;nbsp; &amp;nbsp; &amp;nbsp; &amp;nbsp; 79698" style="rounded=0;whiteSpace=wrap;html=1;fontSize=18;fillColor=none;" parent="xpEyb_dkoKYqvDqRN8BN-1" vertex="1">
                    <mxGeometry x="280" y="600" width="560" height="40" as="geometry"/>
                </mxCell>
                <mxCell id="2Hm9yBPVEckyxiUpafNW-11" value="93040&amp;nbsp; &amp;nbsp; 56463&amp;nbsp; &amp;nbsp; 42102&amp;nbsp; &amp;nbsp; 26825&amp;nbsp; &amp;nbsp; 24283&amp;nbsp; &amp;nbsp; 93357" style="rounded=0;whiteSpace=wrap;html=1;fontSize=18;fillColor=none;" parent="xpEyb_dkoKYqvDqRN8BN-1" vertex="1">
                    <mxGeometry x="280" y="640" width="560" height="40" as="geometry"/>
                </mxCell>
                <mxCell id="2Hm9yBPVEckyxiUpafNW-12" value="4" style="rounded=0;whiteSpace=wrap;html=1;fontSize=18;fillColor=none;" parent="xpEyb_dkoKYqvDqRN8BN-1" vertex="1">
                    <mxGeometry x="160" y="680" width="120" height="40" as="geometry"/>
                </mxCell>
                <mxCell id="2Hm9yBPVEckyxiUpafNW-13" value="5" style="rounded=0;whiteSpace=wrap;html=1;fontSize=18;fillColor=none;" parent="xpEyb_dkoKYqvDqRN8BN-1" vertex="1">
                    <mxGeometry x="160" y="720" width="120" height="40" as="geometry"/>
                </mxCell>
                <mxCell id="2Hm9yBPVEckyxiUpafNW-14" value="6" style="rounded=0;whiteSpace=wrap;html=1;fontSize=18;fillColor=none;" parent="xpEyb_dkoKYqvDqRN8BN-1" vertex="1">
                    <mxGeometry x="160" y="760" width="120" height="40" as="geometry"/>
                </mxCell>
                <mxCell id="2Hm9yBPVEckyxiUpafNW-15" value="7" style="rounded=0;whiteSpace=wrap;html=1;fontSize=18;fillColor=none;" parent="xpEyb_dkoKYqvDqRN8BN-1" vertex="1">
                    <mxGeometry x="160" y="800" width="120" height="40" as="geometry"/>
                </mxCell>
                <mxCell id="2Hm9yBPVEckyxiUpafNW-16" value="8" style="rounded=0;whiteSpace=wrap;html=1;fontSize=18;fillColor=none;" parent="xpEyb_dkoKYqvDqRN8BN-1" vertex="1">
                    <mxGeometry x="160" y="840" width="120" height="40" as="geometry"/>
                </mxCell>
                <mxCell id="2Hm9yBPVEckyxiUpafNW-17" value="8176&amp;nbsp; &amp;nbsp; 3468&amp;nbsp; &amp;nbsp; 7667&amp;nbsp; &amp;nbsp; 3268" style="rounded=0;whiteSpace=wrap;html=1;fontSize=18;fillColor=none;" parent="xpEyb_dkoKYqvDqRN8BN-1" vertex="1">
                    <mxGeometry x="280" y="680" width="560" height="40" as="geometry"/>
                </mxCell>
                <mxCell id="2Hm9yBPVEckyxiUpafNW-18" value="7510&amp;nbsp; &amp;nbsp; &amp;nbsp;6643&amp;nbsp; &amp;nbsp; &amp;nbsp;3719&amp;nbsp; &amp;nbsp; &amp;nbsp;1118&amp;nbsp; &amp;nbsp; &amp;nbsp;8814&amp;nbsp; &amp;nbsp; &amp;nbsp;2807" style="rounded=0;whiteSpace=wrap;html=1;fontSize=18;fillColor=none;" parent="xpEyb_dkoKYqvDqRN8BN-1" vertex="1">
                    <mxGeometry x="280" y="720" width="560" height="40" as="geometry"/>
                </mxCell>
                <mxCell id="2Hm9yBPVEckyxiUpafNW-19" value="482&amp;nbsp; &amp;nbsp; &amp;nbsp;574&amp;nbsp; &amp;nbsp; &amp;nbsp;954" style="rounded=0;whiteSpace=wrap;html=1;fontSize=18;fillColor=none;" parent="xpEyb_dkoKYqvDqRN8BN-1" vertex="1">
                    <mxGeometry x="280" y="760" width="560" height="40" as="geometry"/>
                </mxCell>
                <mxCell id="2Hm9yBPVEckyxiUpafNW-20" value="73&amp;nbsp; &amp;nbsp; &amp;nbsp;13&amp;nbsp; &amp;nbsp; &amp;nbsp;23&amp;nbsp; &amp;nbsp; &amp;nbsp;25" style="rounded=0;whiteSpace=wrap;html=1;fontSize=18;fillColor=none;" parent="xpEyb_dkoKYqvDqRN8BN-1" vertex="1">
                    <mxGeometry x="280" y="800" width="560" height="40" as="geometry"/>
                </mxCell>
                <mxCell id="2Hm9yBPVEckyxiUpafNW-21" value="..." style="rounded=0;whiteSpace=wrap;html=1;fontSize=18;fillColor=none;" parent="xpEyb_dkoKYqvDqRN8BN-1" vertex="1">
                    <mxGeometry x="280" y="840" width="560" height="40" as="geometry"/>
                </mxCell>
                <mxCell id="2Hm9yBPVEckyxiUpafNW-22" value="Hà Nội" style="rounded=0;whiteSpace=wrap;html=1;fontSize=18;fillColor=none;" parent="xpEyb_dkoKYqvDqRN8BN-1" vertex="1">
                    <mxGeometry x="120" y="200" width="120" height="40" as="geometry"/>
                </mxCell>
                <mxCell id="2Hm9yBPVEckyxiUpafNW-23" value="Hải Phòng" style="rounded=0;whiteSpace=wrap;html=1;fontSize=18;fillColor=none;" parent="xpEyb_dkoKYqvDqRN8BN-1" vertex="1">
                    <mxGeometry x="320" y="200" width="120" height="40" as="geometry"/>
                </mxCell>
                <mxCell id="2Hm9yBPVEckyxiUpafNW-24" value="Thái Bình" style="rounded=0;whiteSpace=wrap;html=1;fontSize=18;fillColor=none;" parent="xpEyb_dkoKYqvDqRN8BN-1" vertex="1">
                    <mxGeometry x="520" y="200" width="120" height="40" as="geometry"/>
                </mxCell>
                <mxCell id="2Hm9yBPVEckyxiUpafNW-25" value="Nam Định" style="rounded=0;whiteSpace=wrap;html=1;fontSize=18;fillColor=none;" parent="xpEyb_dkoKYqvDqRN8BN-1" vertex="1">
                    <mxGeometry x="720" y="200" width="120" height="40" as="geometry"/>
                </mxCell>
                <mxCell id="2Hm9yBPVEckyxiUpafNW-30" value="Quảng Ninh" style="rounded=0;whiteSpace=wrap;html=1;fontSize=18;fillColor=none;" parent="xpEyb_dkoKYqvDqRN8BN-1" vertex="1">
                    <mxGeometry x="320" y="280" width="120" height="40" as="geometry"/>
                </mxCell>
                <mxCell id="2Hm9yBPVEckyxiUpafNW-31" value="Bắc Ninh" style="rounded=0;whiteSpace=wrap;html=1;fontSize=18;fillColor=none;" parent="xpEyb_dkoKYqvDqRN8BN-1" vertex="1">
                    <mxGeometry x="520" y="280" width="120" height="40" as="geometry"/>
                </mxCell>
                <mxCell id="2Hm9yBPVEckyxiUpafNW-33" value="" style="rounded=0;whiteSpace=wrap;html=1;fillColor=none;" parent="xpEyb_dkoKYqvDqRN8BN-1" vertex="1">
                    <mxGeometry x="970" y="170" width="830" height="1120" as="geometry"/>
                </mxCell>
                <mxCell id="2Hm9yBPVEckyxiUpafNW-34" value="" style="rounded=0;whiteSpace=wrap;html=1;fillColor=none;" parent="xpEyb_dkoKYqvDqRN8BN-1" vertex="1">
                    <mxGeometry x="1040" y="640" width="680" height="440" as="geometry"/>
                </mxCell>
                <mxCell id="2Hm9yBPVEckyxiUpafNW-35" value="&lt;font size=&quot;3&quot;&gt;HCM&lt;/font&gt;" style="rounded=0;whiteSpace=wrap;html=1;fillColor=none;" parent="xpEyb_dkoKYqvDqRN8BN-1" vertex="1">
                    <mxGeometry x="1040" y="640" width="680" height="80" as="geometry"/>
                </mxCell>
                <mxCell id="2Hm9yBPVEckyxiUpafNW-36" value="366833" style="rounded=0;whiteSpace=wrap;html=1;fontSize=18;fillColor=none;" parent="xpEyb_dkoKYqvDqRN8BN-1" vertex="1">
                    <mxGeometry x="1160" y="720" width="560" height="40" as="geometry"/>
                </mxCell>
                <mxCell id="2Hm9yBPVEckyxiUpafNW-37" value="" style="rounded=0;whiteSpace=wrap;html=1;fontSize=18;fillColor=none;" parent="xpEyb_dkoKYqvDqRN8BN-1" vertex="1">
                    <mxGeometry x="1040" y="720" width="120" height="360" as="geometry"/>
                </mxCell>
                <mxCell id="2Hm9yBPVEckyxiUpafNW-38" value="Đặc biệt" style="rounded=0;whiteSpace=wrap;html=1;fontSize=18;fillColor=none;" parent="xpEyb_dkoKYqvDqRN8BN-1" vertex="1">
                    <mxGeometry x="1040" y="720" width="120" height="40" as="geometry"/>
                </mxCell>
                <mxCell id="2Hm9yBPVEckyxiUpafNW-39" value="1" style="rounded=0;whiteSpace=wrap;html=1;fontSize=18;fillColor=none;" parent="xpEyb_dkoKYqvDqRN8BN-1" vertex="1">
                    <mxGeometry x="1040" y="760" width="120" height="40" as="geometry"/>
                </mxCell>
                <mxCell id="2Hm9yBPVEckyxiUpafNW-40" value="2" style="rounded=0;whiteSpace=wrap;html=1;fontSize=18;fillColor=none;" parent="xpEyb_dkoKYqvDqRN8BN-1" vertex="1">
                    <mxGeometry x="1040" y="800" width="120" height="40" as="geometry"/>
                </mxCell>
                <mxCell id="2Hm9yBPVEckyxiUpafNW-41" value="3" style="rounded=0;whiteSpace=wrap;html=1;fontSize=18;fillColor=none;" parent="xpEyb_dkoKYqvDqRN8BN-1" vertex="1">
                    <mxGeometry x="1040" y="840" width="120" height="40" as="geometry"/>
                </mxCell>
                <mxCell id="2Hm9yBPVEckyxiUpafNW-42" value="18881" style="rounded=0;whiteSpace=wrap;html=1;fontSize=18;fillColor=none;" parent="xpEyb_dkoKYqvDqRN8BN-1" vertex="1">
                    <mxGeometry x="1160" y="760" width="560" height="40" as="geometry"/>
                </mxCell>
                <mxCell id="2Hm9yBPVEckyxiUpafNW-43" value="75983" style="rounded=0;whiteSpace=wrap;html=1;fontSize=18;fillColor=none;" parent="xpEyb_dkoKYqvDqRN8BN-1" vertex="1">
                    <mxGeometry x="1160" y="800" width="560" height="40" as="geometry"/>
                </mxCell>
                <mxCell id="2Hm9yBPVEckyxiUpafNW-44" value="60869&amp;nbsp; &amp;nbsp; &amp;nbsp; &amp;nbsp; &amp;nbsp; &amp;nbsp; &amp;nbsp; &amp;nbsp; &amp;nbsp; &amp;nbsp; &amp;nbsp; &amp;nbsp; &amp;nbsp; &amp;nbsp; &amp;nbsp;40785" style="rounded=0;whiteSpace=wrap;html=1;fontSize=18;fillColor=none;" parent="xpEyb_dkoKYqvDqRN8BN-1" vertex="1">
                    <mxGeometry x="1160" y="840" width="560" height="40" as="geometry"/>
                </mxCell>
                <mxCell id="2Hm9yBPVEckyxiUpafNW-45" value="4" style="rounded=0;whiteSpace=wrap;html=1;fontSize=18;fillColor=none;" parent="xpEyb_dkoKYqvDqRN8BN-1" vertex="1">
                    <mxGeometry x="1040" y="880" width="120" height="40" as="geometry"/>
                </mxCell>
                <mxCell id="2Hm9yBPVEckyxiUpafNW-46" value="5" style="rounded=0;whiteSpace=wrap;html=1;fontSize=18;fillColor=none;" parent="xpEyb_dkoKYqvDqRN8BN-1" vertex="1">
                    <mxGeometry x="1040" y="920" width="120" height="40" as="geometry"/>
                </mxCell>
                <mxCell id="2Hm9yBPVEckyxiUpafNW-47" value="6" style="rounded=0;whiteSpace=wrap;html=1;fontSize=18;fillColor=none;" parent="xpEyb_dkoKYqvDqRN8BN-1" vertex="1">
                    <mxGeometry x="1040" y="960" width="120" height="40" as="geometry"/>
                </mxCell>
                <mxCell id="2Hm9yBPVEckyxiUpafNW-48" value="7" style="rounded=0;whiteSpace=wrap;html=1;fontSize=18;fillColor=none;" parent="xpEyb_dkoKYqvDqRN8BN-1" vertex="1">
                    <mxGeometry x="1040" y="1000" width="120" height="40" as="geometry"/>
                </mxCell>
                <mxCell id="2Hm9yBPVEckyxiUpafNW-49" value="8" style="rounded=0;whiteSpace=wrap;html=1;fontSize=18;fillColor=none;" parent="xpEyb_dkoKYqvDqRN8BN-1" vertex="1">
                    <mxGeometry x="1040" y="1040" width="120" height="40" as="geometry"/>
                </mxCell>
                <mxCell id="2Hm9yBPVEckyxiUpafNW-50" value="68031&amp;nbsp; &amp;nbsp; &amp;nbsp;87130&amp;nbsp; &amp;nbsp; &amp;nbsp;28472&amp;nbsp; &amp;nbsp; &amp;nbsp;10451&amp;nbsp;14702&amp;nbsp; &amp;nbsp; &amp;nbsp;69817&amp;nbsp; &amp;nbsp; &amp;nbsp;31414" style="rounded=0;whiteSpace=wrap;html=1;fontSize=18;fillColor=none;" parent="xpEyb_dkoKYqvDqRN8BN-1" vertex="1">
                    <mxGeometry x="1160" y="880" width="560" height="40" as="geometry"/>
                </mxCell>
                <mxCell id="2Hm9yBPVEckyxiUpafNW-51" value="1399" style="rounded=0;whiteSpace=wrap;html=1;fontSize=18;fillColor=none;" parent="xpEyb_dkoKYqvDqRN8BN-1" vertex="1">
                    <mxGeometry x="1160" y="920" width="560" height="40" as="geometry"/>
                </mxCell>
                <mxCell id="2Hm9yBPVEckyxiUpafNW-52" value="1940&amp;nbsp; &amp;nbsp; &amp;nbsp;0910&amp;nbsp; &amp;nbsp; &amp;nbsp;1163" style="rounded=0;whiteSpace=wrap;html=1;fontSize=18;fillColor=none;" parent="xpEyb_dkoKYqvDqRN8BN-1" vertex="1">
                    <mxGeometry x="1160" y="960" width="560" height="40" as="geometry"/>
                </mxCell>
                <mxCell id="2Hm9yBPVEckyxiUpafNW-53" value="144" style="rounded=0;whiteSpace=wrap;html=1;fontSize=18;fillColor=none;" parent="xpEyb_dkoKYqvDqRN8BN-1" vertex="1">
                    <mxGeometry x="1160" y="1000" width="560" height="40" as="geometry"/>
                </mxCell>
                <mxCell id="2Hm9yBPVEckyxiUpafNW-54" value="92" style="rounded=0;whiteSpace=wrap;html=1;fontSize=18;fillColor=none;" parent="xpEyb_dkoKYqvDqRN8BN-1" vertex="1">
                    <mxGeometry x="1160" y="1040" width="560" height="40" as="geometry"/>
                </mxCell>
                <mxCell id="2Hm9yBPVEckyxiUpafNW-55" value="HCM" style="rounded=0;whiteSpace=wrap;html=1;fontSize=18;fillColor=none;" parent="xpEyb_dkoKYqvDqRN8BN-1" vertex="1">
                    <mxGeometry x="1000" y="200" width="120" height="40" as="geometry"/>
                </mxCell>
                <mxCell id="2Hm9yBPVEckyxiUpafNW-56" value="Kiên Giang" style="rounded=0;whiteSpace=wrap;html=1;fontSize=18;fillColor=none;" parent="xpEyb_dkoKYqvDqRN8BN-1" vertex="1">
                    <mxGeometry x="1160" y="200" width="120" height="40" as="geometry"/>
                </mxCell>
                <mxCell id="2Hm9yBPVEckyxiUpafNW-57" value="Tiền Giang" style="rounded=0;whiteSpace=wrap;html=1;fontSize=18;fillColor=none;" parent="xpEyb_dkoKYqvDqRN8BN-1" vertex="1">
                    <mxGeometry x="1320" y="200" width="120" height="40" as="geometry"/>
                </mxCell>
                <mxCell id="2Hm9yBPVEckyxiUpafNW-58" value="Đà Lạt" style="rounded=0;whiteSpace=wrap;html=1;fontSize=18;fillColor=none;" parent="xpEyb_dkoKYqvDqRN8BN-1" vertex="1">
                    <mxGeometry x="1480" y="200" width="120" height="40" as="geometry"/>
                </mxCell>
                <mxCell id="2Hm9yBPVEckyxiUpafNW-59" value="Đồng Tháp" style="rounded=0;whiteSpace=wrap;html=1;fontSize=18;fillColor=none;" parent="xpEyb_dkoKYqvDqRN8BN-1" vertex="1">
                    <mxGeometry x="1640" y="200" width="120" height="40" as="geometry"/>
                </mxCell>
                <mxCell id="2Hm9yBPVEckyxiUpafNW-60" value="Cà Mau" style="rounded=0;whiteSpace=wrap;html=1;fontSize=18;fillColor=none;" parent="xpEyb_dkoKYqvDqRN8BN-1" vertex="1">
                    <mxGeometry x="1000" y="280" width="120" height="40" as="geometry"/>
                </mxCell>
                <mxCell id="2Hm9yBPVEckyxiUpafNW-64" value="Vũng Tàu" style="rounded=0;whiteSpace=wrap;html=1;fontSize=18;fillColor=none;" parent="xpEyb_dkoKYqvDqRN8BN-1" vertex="1">
                    <mxGeometry x="1160" y="280" width="120" height="40" as="geometry"/>
                </mxCell>
                <mxCell id="2Hm9yBPVEckyxiUpafNW-65" value="Bến Tre" style="rounded=0;whiteSpace=wrap;html=1;fontSize=18;fillColor=none;" parent="xpEyb_dkoKYqvDqRN8BN-1" vertex="1">
                    <mxGeometry x="1320" y="280" width="120" height="40" as="geometry"/>
                </mxCell>
                <mxCell id="2Hm9yBPVEckyxiUpafNW-66" value="Bạc Liêu" style="rounded=0;whiteSpace=wrap;html=1;fontSize=18;fillColor=none;" parent="xpEyb_dkoKYqvDqRN8BN-1" vertex="1">
                    <mxGeometry x="1480" y="280" width="120" height="40" as="geometry"/>
                </mxCell>
                <mxCell id="2Hm9yBPVEckyxiUpafNW-67" value="Sóc Trăng" style="rounded=0;whiteSpace=wrap;html=1;fontSize=18;fillColor=none;" parent="xpEyb_dkoKYqvDqRN8BN-1" vertex="1">
                    <mxGeometry x="1640" y="280" width="120" height="40" as="geometry"/>
                </mxCell>
                <mxCell id="2Hm9yBPVEckyxiUpafNW-68" value="Bình Dương" style="rounded=0;whiteSpace=wrap;html=1;fontSize=18;fillColor=none;" parent="xpEyb_dkoKYqvDqRN8BN-1" vertex="1">
                    <mxGeometry x="1640" y="360" width="120" height="40" as="geometry"/>
                </mxCell>
                <mxCell id="2Hm9yBPVEckyxiUpafNW-69" value="Đồng Nai" style="rounded=0;whiteSpace=wrap;html=1;fontSize=18;fillColor=none;" parent="xpEyb_dkoKYqvDqRN8BN-1" vertex="1">
                    <mxGeometry x="1480" y="360" width="120" height="40" as="geometry"/>
                </mxCell>
                <mxCell id="2Hm9yBPVEckyxiUpafNW-70" value="Bình Thuận" style="rounded=0;whiteSpace=wrap;html=1;fontSize=18;fillColor=none;" parent="xpEyb_dkoKYqvDqRN8BN-1" vertex="1">
                    <mxGeometry x="1320" y="360" width="120" height="40" as="geometry"/>
                </mxCell>
                <mxCell id="2Hm9yBPVEckyxiUpafNW-71" value="An Giang" style="rounded=0;whiteSpace=wrap;html=1;fontSize=18;fillColor=none;" parent="xpEyb_dkoKYqvDqRN8BN-1" vertex="1">
                    <mxGeometry x="1160" y="360" width="120" height="40" as="geometry"/>
                </mxCell>
                <mxCell id="2Hm9yBPVEckyxiUpafNW-72" value="Cần Thơ" style="rounded=0;whiteSpace=wrap;html=1;fontSize=18;fillColor=none;" parent="xpEyb_dkoKYqvDqRN8BN-1" vertex="1">
                    <mxGeometry x="1000" y="360" width="120" height="40" as="geometry"/>
                </mxCell>
                <mxCell id="2Hm9yBPVEckyxiUpafNW-73" value="Hậu Giang" style="rounded=0;whiteSpace=wrap;html=1;fontSize=18;fillColor=none;" parent="xpEyb_dkoKYqvDqRN8BN-1" vertex="1">
                    <mxGeometry x="1640" y="440" width="120" height="40" as="geometry"/>
                </mxCell>
                <mxCell id="2Hm9yBPVEckyxiUpafNW-74" value="Bình Phước" style="rounded=0;whiteSpace=wrap;html=1;fontSize=18;fillColor=none;" parent="xpEyb_dkoKYqvDqRN8BN-1" vertex="1">
                    <mxGeometry x="1480" y="440" width="120" height="40" as="geometry"/>
                </mxCell>
                <mxCell id="2Hm9yBPVEckyxiUpafNW-75" value="Trà Vinh" style="rounded=0;whiteSpace=wrap;html=1;fontSize=18;fillColor=none;" parent="xpEyb_dkoKYqvDqRN8BN-1" vertex="1">
                    <mxGeometry x="1320" y="440" width="120" height="40" as="geometry"/>
                </mxCell>
                <mxCell id="2Hm9yBPVEckyxiUpafNW-76" value="Vĩnh Long" style="rounded=0;whiteSpace=wrap;html=1;fontSize=18;fillColor=none;" parent="xpEyb_dkoKYqvDqRN8BN-1" vertex="1">
                    <mxGeometry x="1160" y="440" width="120" height="40" as="geometry"/>
                </mxCell>
                <mxCell id="2Hm9yBPVEckyxiUpafNW-77" value="Tây Ninh" style="rounded=0;whiteSpace=wrap;html=1;fontSize=18;fillColor=none;" parent="xpEyb_dkoKYqvDqRN8BN-1" vertex="1">
                    <mxGeometry x="1000" y="440" width="120" height="40" as="geometry"/>
                </mxCell>
                <mxCell id="2Hm9yBPVEckyxiUpafNW-78" value="Long An" style="rounded=0;whiteSpace=wrap;html=1;fontSize=18;fillColor=none;" parent="xpEyb_dkoKYqvDqRN8BN-1" vertex="1">
                    <mxGeometry x="1000" y="520" width="120" height="40" as="geometry"/>
                </mxCell>
                <mxCell id="2Hm9yBPVEckyxiUpafNW-79" value="" style="rounded=0;whiteSpace=wrap;html=1;fillColor=none;" parent="xpEyb_dkoKYqvDqRN8BN-1" vertex="1">
                    <mxGeometry x="1840" y="170" width="830" height="920" as="geometry"/>
                </mxCell>
                <mxCell id="2Hm9yBPVEckyxiUpafNW-80" value="" style="rounded=0;whiteSpace=wrap;html=1;fillColor=none;" parent="xpEyb_dkoKYqvDqRN8BN-1" vertex="1">
                    <mxGeometry x="1910" y="470" width="680" height="440" as="geometry"/>
                </mxCell>
                <mxCell id="2Hm9yBPVEckyxiUpafNW-81" value="&lt;font size=&quot;3&quot;&gt;HCM&lt;/font&gt;" style="rounded=0;whiteSpace=wrap;html=1;fillColor=none;" parent="xpEyb_dkoKYqvDqRN8BN-1" vertex="1">
                    <mxGeometry x="1910" y="470" width="680" height="80" as="geometry"/>
                </mxCell>
                <mxCell id="2Hm9yBPVEckyxiUpafNW-82" value="366833" style="rounded=0;whiteSpace=wrap;html=1;fontSize=18;fillColor=none;" parent="xpEyb_dkoKYqvDqRN8BN-1" vertex="1">
                    <mxGeometry x="2030" y="550" width="560" height="40" as="geometry"/>
                </mxCell>
                <mxCell id="2Hm9yBPVEckyxiUpafNW-83" value="" style="rounded=0;whiteSpace=wrap;html=1;fontSize=18;fillColor=none;" parent="xpEyb_dkoKYqvDqRN8BN-1" vertex="1">
                    <mxGeometry x="1910" y="550" width="120" height="360" as="geometry"/>
                </mxCell>
                <mxCell id="2Hm9yBPVEckyxiUpafNW-84" value="Đặc biệt" style="rounded=0;whiteSpace=wrap;html=1;fontSize=18;fillColor=none;" parent="xpEyb_dkoKYqvDqRN8BN-1" vertex="1">
                    <mxGeometry x="1910" y="550" width="120" height="40" as="geometry"/>
                </mxCell>
                <mxCell id="2Hm9yBPVEckyxiUpafNW-85" value="1" style="rounded=0;whiteSpace=wrap;html=1;fontSize=18;fillColor=none;" parent="xpEyb_dkoKYqvDqRN8BN-1" vertex="1">
                    <mxGeometry x="1910" y="590" width="120" height="40" as="geometry"/>
                </mxCell>
                <mxCell id="2Hm9yBPVEckyxiUpafNW-86" value="2" style="rounded=0;whiteSpace=wrap;html=1;fontSize=18;fillColor=none;" parent="xpEyb_dkoKYqvDqRN8BN-1" vertex="1">
                    <mxGeometry x="1910" y="630" width="120" height="40" as="geometry"/>
                </mxCell>
                <mxCell id="2Hm9yBPVEckyxiUpafNW-87" value="3" style="rounded=0;whiteSpace=wrap;html=1;fontSize=18;fillColor=none;" parent="xpEyb_dkoKYqvDqRN8BN-1" vertex="1">
                    <mxGeometry x="1910" y="670" width="120" height="40" as="geometry"/>
                </mxCell>
                <mxCell id="2Hm9yBPVEckyxiUpafNW-88" value="18881" style="rounded=0;whiteSpace=wrap;html=1;fontSize=18;fillColor=none;" parent="xpEyb_dkoKYqvDqRN8BN-1" vertex="1">
                    <mxGeometry x="2030" y="590" width="560" height="40" as="geometry"/>
                </mxCell>
                <mxCell id="2Hm9yBPVEckyxiUpafNW-89" value="75983" style="rounded=0;whiteSpace=wrap;html=1;fontSize=18;fillColor=none;" parent="xpEyb_dkoKYqvDqRN8BN-1" vertex="1">
                    <mxGeometry x="2030" y="630" width="560" height="40" as="geometry"/>
                </mxCell>
                <mxCell id="2Hm9yBPVEckyxiUpafNW-90" value="60869&amp;nbsp; &amp;nbsp; &amp;nbsp; &amp;nbsp; &amp;nbsp; &amp;nbsp; &amp;nbsp; &amp;nbsp; &amp;nbsp; &amp;nbsp; &amp;nbsp; &amp;nbsp; &amp;nbsp; &amp;nbsp; &amp;nbsp;40785" style="rounded=0;whiteSpace=wrap;html=1;fontSize=18;fillColor=none;" parent="xpEyb_dkoKYqvDqRN8BN-1" vertex="1">
                    <mxGeometry x="2030" y="670" width="560" height="40" as="geometry"/>
                </mxCell>
                <mxCell id="2Hm9yBPVEckyxiUpafNW-91" value="4" style="rounded=0;whiteSpace=wrap;html=1;fontSize=18;fillColor=none;" parent="xpEyb_dkoKYqvDqRN8BN-1" vertex="1">
                    <mxGeometry x="1910" y="710" width="120" height="40" as="geometry"/>
                </mxCell>
                <mxCell id="2Hm9yBPVEckyxiUpafNW-92" value="5" style="rounded=0;whiteSpace=wrap;html=1;fontSize=18;fillColor=none;" parent="xpEyb_dkoKYqvDqRN8BN-1" vertex="1">
                    <mxGeometry x="1910" y="750" width="120" height="40" as="geometry"/>
                </mxCell>
                <mxCell id="2Hm9yBPVEckyxiUpafNW-93" value="6" style="rounded=0;whiteSpace=wrap;html=1;fontSize=18;fillColor=none;" parent="xpEyb_dkoKYqvDqRN8BN-1" vertex="1">
                    <mxGeometry x="1910" y="790" width="120" height="40" as="geometry"/>
                </mxCell>
                <mxCell id="2Hm9yBPVEckyxiUpafNW-94" value="7" style="rounded=0;whiteSpace=wrap;html=1;fontSize=18;fillColor=none;" parent="xpEyb_dkoKYqvDqRN8BN-1" vertex="1">
                    <mxGeometry x="1910" y="830" width="120" height="40" as="geometry"/>
                </mxCell>
                <mxCell id="2Hm9yBPVEckyxiUpafNW-95" value="8" style="rounded=0;whiteSpace=wrap;html=1;fontSize=18;fillColor=none;" parent="xpEyb_dkoKYqvDqRN8BN-1" vertex="1">
                    <mxGeometry x="1910" y="870" width="120" height="40" as="geometry"/>
                </mxCell>
                <mxCell id="2Hm9yBPVEckyxiUpafNW-96" value="68031&amp;nbsp; &amp;nbsp; &amp;nbsp;87130&amp;nbsp; &amp;nbsp; &amp;nbsp;28472&amp;nbsp; &amp;nbsp; &amp;nbsp;10451&amp;nbsp;14702&amp;nbsp; &amp;nbsp; &amp;nbsp;69817&amp;nbsp; &amp;nbsp; &amp;nbsp;31414" style="rounded=0;whiteSpace=wrap;html=1;fontSize=18;fillColor=none;" parent="xpEyb_dkoKYqvDqRN8BN-1" vertex="1">
                    <mxGeometry x="2030" y="710" width="560" height="40" as="geometry"/>
                </mxCell>
                <mxCell id="2Hm9yBPVEckyxiUpafNW-97" value="1399" style="rounded=0;whiteSpace=wrap;html=1;fontSize=18;fillColor=none;" parent="xpEyb_dkoKYqvDqRN8BN-1" vertex="1">
                    <mxGeometry x="2030" y="750" width="560" height="40" as="geometry"/>
                </mxCell>
                <mxCell id="2Hm9yBPVEckyxiUpafNW-98" value="1940&amp;nbsp; &amp;nbsp; &amp;nbsp;0910&amp;nbsp; &amp;nbsp; &amp;nbsp;1163" style="rounded=0;whiteSpace=wrap;html=1;fontSize=18;fillColor=none;" parent="xpEyb_dkoKYqvDqRN8BN-1" vertex="1">
                    <mxGeometry x="2030" y="790" width="560" height="40" as="geometry"/>
                </mxCell>
                <mxCell id="2Hm9yBPVEckyxiUpafNW-99" value="144" style="rounded=0;whiteSpace=wrap;html=1;fontSize=18;fillColor=none;" parent="xpEyb_dkoKYqvDqRN8BN-1" vertex="1">
                    <mxGeometry x="2030" y="830" width="560" height="40" as="geometry"/>
                </mxCell>
                <mxCell id="2Hm9yBPVEckyxiUpafNW-100" value="92" style="rounded=0;whiteSpace=wrap;html=1;fontSize=18;fillColor=none;" parent="xpEyb_dkoKYqvDqRN8BN-1" vertex="1">
                    <mxGeometry x="2030" y="870" width="560" height="40" as="geometry"/>
                </mxCell>
                <mxCell id="2Hm9yBPVEckyxiUpafNW-101" value="Bình Định" style="rounded=0;whiteSpace=wrap;html=1;fontSize=18;fillColor=none;" parent="xpEyb_dkoKYqvDqRN8BN-1" vertex="1">
                    <mxGeometry x="1870" y="200" width="120" height="40" as="geometry"/>
                </mxCell>
                <mxCell id="2Hm9yBPVEckyxiUpafNW-102" value="Đak Lak" style="rounded=0;whiteSpace=wrap;html=1;fontSize=18;fillColor=none;" parent="xpEyb_dkoKYqvDqRN8BN-1" vertex="1">
                    <mxGeometry x="2030" y="200" width="120" height="40" as="geometry"/>
                </mxCell>
                <mxCell id="2Hm9yBPVEckyxiUpafNW-103" value="Đà Nẵng" style="rounded=0;whiteSpace=wrap;html=1;fontSize=18;fillColor=none;" parent="xpEyb_dkoKYqvDqRN8BN-1" vertex="1">
                    <mxGeometry x="2190" y="200" width="120" height="40" as="geometry"/>
                </mxCell>
                <mxCell id="2Hm9yBPVEckyxiUpafNW-104" value="Dak Nông" style="rounded=0;whiteSpace=wrap;html=1;fontSize=18;fillColor=none;" parent="xpEyb_dkoKYqvDqRN8BN-1" vertex="1">
                    <mxGeometry x="2350" y="200" width="120" height="40" as="geometry"/>
                </mxCell>
                <mxCell id="2Hm9yBPVEckyxiUpafNW-105" value="Gia Lai" style="rounded=0;whiteSpace=wrap;html=1;fontSize=18;fillColor=none;" parent="xpEyb_dkoKYqvDqRN8BN-1" vertex="1">
                    <mxGeometry x="2510" y="200" width="120" height="40" as="geometry"/>
                </mxCell>
                <mxCell id="2Hm9yBPVEckyxiUpafNW-106" value="Khánh Hòa" style="rounded=0;whiteSpace=wrap;html=1;fontSize=18;fillColor=none;" parent="xpEyb_dkoKYqvDqRN8BN-1" vertex="1">
                    <mxGeometry x="1870" y="280" width="120" height="40" as="geometry"/>
                </mxCell>
                <mxCell id="2Hm9yBPVEckyxiUpafNW-107" value="Kon Tum" style="rounded=0;whiteSpace=wrap;html=1;fontSize=18;fillColor=none;" parent="xpEyb_dkoKYqvDqRN8BN-1" vertex="1">
                    <mxGeometry x="2030" y="280" width="120" height="40" as="geometry"/>
                </mxCell>
                <mxCell id="2Hm9yBPVEckyxiUpafNW-108" value="Ninh Thuận" style="rounded=0;whiteSpace=wrap;html=1;fontSize=18;fillColor=none;" parent="xpEyb_dkoKYqvDqRN8BN-1" vertex="1">
                    <mxGeometry x="2190" y="280" width="120" height="40" as="geometry"/>
                </mxCell>
                <mxCell id="2Hm9yBPVEckyxiUpafNW-109" value="Phú Yên" style="rounded=0;whiteSpace=wrap;html=1;fontSize=18;fillColor=none;" parent="xpEyb_dkoKYqvDqRN8BN-1" vertex="1">
                    <mxGeometry x="2350" y="280" width="120" height="40" as="geometry"/>
                </mxCell>
                <mxCell id="2Hm9yBPVEckyxiUpafNW-110" value="Quảng Bình" style="rounded=0;whiteSpace=wrap;html=1;fontSize=18;fillColor=none;" parent="xpEyb_dkoKYqvDqRN8BN-1" vertex="1">
                    <mxGeometry x="2510" y="280" width="120" height="40" as="geometry"/>
                </mxCell>
                <mxCell id="2Hm9yBPVEckyxiUpafNW-112" value="Thừa thiên Huế" style="rounded=0;whiteSpace=wrap;html=1;fontSize=18;fillColor=none;" parent="xpEyb_dkoKYqvDqRN8BN-1" vertex="1">
                    <mxGeometry x="2350" y="360" width="120" height="40" as="geometry"/>
                </mxCell>
                <mxCell id="2Hm9yBPVEckyxiUpafNW-113" value="Quảng Trị" style="rounded=0;whiteSpace=wrap;html=1;fontSize=18;fillColor=none;" parent="xpEyb_dkoKYqvDqRN8BN-1" vertex="1">
                    <mxGeometry x="2190" y="360" width="120" height="40" as="geometry"/>
                </mxCell>
                <mxCell id="2Hm9yBPVEckyxiUpafNW-114" value="Quảng Nam" style="rounded=0;whiteSpace=wrap;html=1;fontSize=18;fillColor=none;" parent="xpEyb_dkoKYqvDqRN8BN-1" vertex="1">
                    <mxGeometry x="2030" y="360" width="120" height="40" as="geometry"/>
                </mxCell>
                <mxCell id="2Hm9yBPVEckyxiUpafNW-115" value="Quảng Ngãi" style="rounded=0;whiteSpace=wrap;html=1;fontSize=18;fillColor=none;" parent="xpEyb_dkoKYqvDqRN8BN-1" vertex="1">
                    <mxGeometry x="1870" y="360" width="120" height="40" as="geometry"/>
                </mxCell>
            </root>
        </mxGraphModel>
    </diagram>
    <diagram id="rNP751PhcvFrb4K3E_4v" name="Login">
        <mxGraphModel dx="577" dy="230" grid="1" gridSize="10" guides="1" tooltips="1" connect="1" arrows="1" fold="1" page="1" pageScale="1" pageWidth="850" pageHeight="1100" math="0" shadow="0">
            <root>
                <mxCell id="ONUTiuJyhOPKdDok5U_y-0"/>
                <mxCell id="ONUTiuJyhOPKdDok5U_y-1" parent="ONUTiuJyhOPKdDok5U_y-0"/>
                <mxCell id="jCLzDci9T9Iogxdap23t-0" value="" style="rounded=0;whiteSpace=wrap;html=1;fontSize=18;fillColor=none;" parent="ONUTiuJyhOPKdDok5U_y-1" vertex="1">
                    <mxGeometry x="160" y="160" width="560" height="360" as="geometry"/>
                </mxCell>
                <mxCell id="jCLzDci9T9Iogxdap23t-1" value="Username" style="rounded=1;whiteSpace=wrap;html=1;fontSize=18;fillColor=none;" parent="ONUTiuJyhOPKdDok5U_y-1" vertex="1">
                    <mxGeometry x="280" y="240" width="320" height="40" as="geometry"/>
                </mxCell>
                <mxCell id="jCLzDci9T9Iogxdap23t-2" value="Đăng Nhập" style="text;html=1;strokeColor=none;fillColor=none;align=center;verticalAlign=middle;whiteSpace=wrap;rounded=0;fontSize=18;" parent="ONUTiuJyhOPKdDok5U_y-1" vertex="1">
                    <mxGeometry x="370" y="200" width="140" height="30" as="geometry"/>
                </mxCell>
                <mxCell id="jCLzDci9T9Iogxdap23t-3" value="Password" style="rounded=1;whiteSpace=wrap;html=1;fontSize=18;fillColor=none;" parent="ONUTiuJyhOPKdDok5U_y-1" vertex="1">
                    <mxGeometry x="280" y="320" width="320" height="40" as="geometry"/>
                </mxCell>
                <mxCell id="jCLzDci9T9Iogxdap23t-4" value="Đăng nhập" style="rounded=0;whiteSpace=wrap;html=1;fontSize=18;fillColor=none;" parent="ONUTiuJyhOPKdDok5U_y-1" vertex="1">
                    <mxGeometry x="380" y="400" width="120" height="40" as="geometry"/>
                </mxCell>
                <mxCell id="jCLzDci9T9Iogxdap23t-5" value="Đăng ký" style="text;html=1;strokeColor=none;fillColor=none;align=center;verticalAlign=middle;whiteSpace=wrap;rounded=0;fontSize=18;" parent="ONUTiuJyhOPKdDok5U_y-1" vertex="1">
                    <mxGeometry x="300" y="450" width="95" height="30" as="geometry"/>
                </mxCell>
                <mxCell id="jCLzDci9T9Iogxdap23t-6" value="Quên mật khẩu" style="text;html=1;strokeColor=none;fillColor=none;align=center;verticalAlign=middle;whiteSpace=wrap;rounded=0;fontSize=18;" parent="ONUTiuJyhOPKdDok5U_y-1" vertex="1">
                    <mxGeometry x="415" y="450" width="205" height="30" as="geometry"/>
                </mxCell>
            </root>
        </mxGraphModel>
    </diagram>
    <diagram id="bwyykqr8jC5PNMlj4fsr" name="Signup">
        <mxGraphModel dx="577" dy="128" grid="1" gridSize="10" guides="1" tooltips="1" connect="1" arrows="1" fold="1" page="1" pageScale="1" pageWidth="850" pageHeight="1100" math="0" shadow="0">
            <root>
                <mxCell id="wMimal2fHDbuxELkynz3-0"/>
                <mxCell id="wMimal2fHDbuxELkynz3-1" parent="wMimal2fHDbuxELkynz3-0"/>
                <mxCell id="JH0KPNoWJcF0N7vst7tq-0" value="" style="rounded=0;whiteSpace=wrap;html=1;fontSize=18;fillColor=none;" parent="wMimal2fHDbuxELkynz3-1" vertex="1">
                    <mxGeometry x="160" y="160" width="560" height="480" as="geometry"/>
                </mxCell>
                <mxCell id="JH0KPNoWJcF0N7vst7tq-1" value="Username" style="rounded=1;whiteSpace=wrap;html=1;fontSize=18;fillColor=none;" parent="wMimal2fHDbuxELkynz3-1" vertex="1">
                    <mxGeometry x="280" y="240" width="320" height="40" as="geometry"/>
                </mxCell>
                <mxCell id="JH0KPNoWJcF0N7vst7tq-2" value="Đăng ký" style="text;html=1;strokeColor=none;fillColor=none;align=center;verticalAlign=middle;whiteSpace=wrap;rounded=0;fontSize=18;" parent="wMimal2fHDbuxELkynz3-1" vertex="1">
                    <mxGeometry x="370" y="200" width="140" height="30" as="geometry"/>
                </mxCell>
                <mxCell id="JH0KPNoWJcF0N7vst7tq-3" value="Email" style="rounded=1;whiteSpace=wrap;html=1;fontSize=18;fillColor=none;" parent="wMimal2fHDbuxELkynz3-1" vertex="1">
                    <mxGeometry x="280" y="320" width="320" height="40" as="geometry"/>
                </mxCell>
                <mxCell id="JH0KPNoWJcF0N7vst7tq-4" value="Đăng Ký" style="rounded=0;whiteSpace=wrap;html=1;fontSize=18;fillColor=none;" parent="wMimal2fHDbuxELkynz3-1" vertex="1">
                    <mxGeometry x="390" y="540" width="120" height="40" as="geometry"/>
                </mxCell>
                <mxCell id="JH0KPNoWJcF0N7vst7tq-5" value="Đăng nhập" style="text;html=1;strokeColor=none;fillColor=none;align=center;verticalAlign=middle;whiteSpace=wrap;rounded=0;fontSize=18;" parent="wMimal2fHDbuxELkynz3-1" vertex="1">
                    <mxGeometry x="310" y="590" width="95" height="30" as="geometry"/>
                </mxCell>
                <mxCell id="JH0KPNoWJcF0N7vst7tq-6" value="Quên mật khẩu" style="text;html=1;strokeColor=none;fillColor=none;align=center;verticalAlign=middle;whiteSpace=wrap;rounded=0;fontSize=18;" parent="wMimal2fHDbuxELkynz3-1" vertex="1">
                    <mxGeometry x="425" y="590" width="205" height="30" as="geometry"/>
                </mxCell>
                <mxCell id="JH0KPNoWJcF0N7vst7tq-7" value="Password" style="rounded=1;whiteSpace=wrap;html=1;fontSize=18;fillColor=none;" parent="wMimal2fHDbuxELkynz3-1" vertex="1">
                    <mxGeometry x="280" y="400" width="320" height="40" as="geometry"/>
                </mxCell>
                <mxCell id="JH0KPNoWJcF0N7vst7tq-8" value="Confirm Password" style="rounded=1;whiteSpace=wrap;html=1;fontSize=18;fillColor=none;" parent="wMimal2fHDbuxELkynz3-1" vertex="1">
                    <mxGeometry x="280" y="480" width="320" height="40" as="geometry"/>
                </mxCell>
            </root>
        </mxGraphModel>
    </diagram>
    <diagram id="LiGt7m7BpF3-BUoIb9jK" name="User Manager">
        <mxGraphModel dx="1585" dy="431" grid="1" gridSize="10" guides="1" tooltips="1" connect="1" arrows="1" fold="1" page="1" pageScale="1" pageWidth="850" pageHeight="1100" math="0" shadow="0">
            <root>
                <mxCell id="SmKF6gzpdZYjzV4cevd--0"/>
                <mxCell id="SmKF6gzpdZYjzV4cevd--1" parent="SmKF6gzpdZYjzV4cevd--0"/>
                <mxCell id="-Ce5dqivGfvMiazrthJt-0" value="" style="rounded=0;whiteSpace=wrap;html=1;fontSize=18;fillColor=none;" parent="SmKF6gzpdZYjzV4cevd--1" vertex="1">
                    <mxGeometry x="-80" y="80" width="920" height="360" as="geometry"/>
                </mxCell>
                <mxCell id="-Ce5dqivGfvMiazrthJt-2" value="Username 1" style="rounded=0;whiteSpace=wrap;html=1;fontSize=18;fillColor=none;" parent="SmKF6gzpdZYjzV4cevd--1" vertex="1">
                    <mxGeometry x="-40" y="120" width="200" height="40" as="geometry"/>
                </mxCell>
                <mxCell id="-Ce5dqivGfvMiazrthJt-3" value="Email 1" style="rounded=0;whiteSpace=wrap;html=1;fontSize=18;fillColor=none;" parent="SmKF6gzpdZYjzV4cevd--1" vertex="1">
                    <mxGeometry x="170" y="120" width="200" height="40" as="geometry"/>
                </mxCell>
                <mxCell id="-Ce5dqivGfvMiazrthJt-4" value="Số lần dò" style="rounded=0;whiteSpace=wrap;html=1;fontSize=18;fillColor=none;" parent="SmKF6gzpdZYjzV4cevd--1" vertex="1">
                    <mxGeometry x="380" y="120" width="200" height="40" as="geometry"/>
                </mxCell>
                <mxCell id="-Ce5dqivGfvMiazrthJt-6" value="Update" style="rounded=1;whiteSpace=wrap;html=1;fontSize=18;fillColor=none;" parent="SmKF6gzpdZYjzV4cevd--1" vertex="1">
                    <mxGeometry x="630" y="120" width="80" height="40" as="geometry"/>
                </mxCell>
                <mxCell id="-Ce5dqivGfvMiazrthJt-7" value="Xóa" style="rounded=1;whiteSpace=wrap;html=1;fontSize=18;fillColor=none;" parent="SmKF6gzpdZYjzV4cevd--1" vertex="1">
                    <mxGeometry x="720" y="120" width="80" height="40" as="geometry"/>
                </mxCell>
                <mxCell id="-Ce5dqivGfvMiazrthJt-8" value="Username 2" style="rounded=0;whiteSpace=wrap;html=1;fontSize=18;fillColor=none;" parent="SmKF6gzpdZYjzV4cevd--1" vertex="1">
                    <mxGeometry x="-40" y="200" width="200" height="40" as="geometry"/>
                </mxCell>
                <mxCell id="-Ce5dqivGfvMiazrthJt-9" value="Email 2" style="rounded=0;whiteSpace=wrap;html=1;fontSize=18;fillColor=none;" parent="SmKF6gzpdZYjzV4cevd--1" vertex="1">
                    <mxGeometry x="170" y="200" width="200" height="40" as="geometry"/>
                </mxCell>
                <mxCell id="-Ce5dqivGfvMiazrthJt-10" value="Số lần dò" style="rounded=0;whiteSpace=wrap;html=1;fontSize=18;fillColor=none;" parent="SmKF6gzpdZYjzV4cevd--1" vertex="1">
                    <mxGeometry x="380" y="200" width="200" height="40" as="geometry"/>
                </mxCell>
                <mxCell id="-Ce5dqivGfvMiazrthJt-11" value="Update" style="rounded=1;whiteSpace=wrap;html=1;fontSize=18;fillColor=none;" parent="SmKF6gzpdZYjzV4cevd--1" vertex="1">
                    <mxGeometry x="630" y="200" width="80" height="40" as="geometry"/>
                </mxCell>
                <mxCell id="-Ce5dqivGfvMiazrthJt-12" value="Xóa" style="rounded=1;whiteSpace=wrap;html=1;fontSize=18;fillColor=none;" parent="SmKF6gzpdZYjzV4cevd--1" vertex="1">
                    <mxGeometry x="720" y="200" width="80" height="40" as="geometry"/>
                </mxCell>
                <mxCell id="-Ce5dqivGfvMiazrthJt-13" value="Username 3" style="rounded=0;whiteSpace=wrap;html=1;fontSize=18;fillColor=none;" parent="SmKF6gzpdZYjzV4cevd--1" vertex="1">
                    <mxGeometry x="-40" y="280" width="200" height="40" as="geometry"/>
                </mxCell>
                <mxCell id="-Ce5dqivGfvMiazrthJt-14" value="Email 3" style="rounded=0;whiteSpace=wrap;html=1;fontSize=18;fillColor=none;" parent="SmKF6gzpdZYjzV4cevd--1" vertex="1">
                    <mxGeometry x="170" y="280" width="200" height="40" as="geometry"/>
                </mxCell>
                <mxCell id="-Ce5dqivGfvMiazrthJt-15" value="Số lần dò" style="rounded=0;whiteSpace=wrap;html=1;fontSize=18;fillColor=none;" parent="SmKF6gzpdZYjzV4cevd--1" vertex="1">
                    <mxGeometry x="380" y="280" width="200" height="40" as="geometry"/>
                </mxCell>
                <mxCell id="-Ce5dqivGfvMiazrthJt-16" value="Update" style="rounded=1;whiteSpace=wrap;html=1;fontSize=18;fillColor=none;" parent="SmKF6gzpdZYjzV4cevd--1" vertex="1">
                    <mxGeometry x="630" y="280" width="80" height="40" as="geometry"/>
                </mxCell>
                <mxCell id="-Ce5dqivGfvMiazrthJt-17" value="Xóa" style="rounded=1;whiteSpace=wrap;html=1;fontSize=18;fillColor=none;" parent="SmKF6gzpdZYjzV4cevd--1" vertex="1">
                    <mxGeometry x="720" y="280" width="80" height="40" as="geometry"/>
                </mxCell>
                <mxCell id="-Ce5dqivGfvMiazrthJt-18" value="Username 4" style="rounded=0;whiteSpace=wrap;html=1;fontSize=18;fillColor=none;" parent="SmKF6gzpdZYjzV4cevd--1" vertex="1">
                    <mxGeometry x="-40" y="360" width="200" height="40" as="geometry"/>
                </mxCell>
                <mxCell id="-Ce5dqivGfvMiazrthJt-19" value="Email 4" style="rounded=0;whiteSpace=wrap;html=1;fontSize=18;fillColor=none;" parent="SmKF6gzpdZYjzV4cevd--1" vertex="1">
                    <mxGeometry x="170" y="360" width="200" height="40" as="geometry"/>
                </mxCell>
                <mxCell id="-Ce5dqivGfvMiazrthJt-20" value="Số lần dò" style="rounded=0;whiteSpace=wrap;html=1;fontSize=18;fillColor=none;" parent="SmKF6gzpdZYjzV4cevd--1" vertex="1">
                    <mxGeometry x="380" y="360" width="200" height="40" as="geometry"/>
                </mxCell>
                <mxCell id="-Ce5dqivGfvMiazrthJt-21" value="Update" style="rounded=1;whiteSpace=wrap;html=1;fontSize=18;fillColor=none;" parent="SmKF6gzpdZYjzV4cevd--1" vertex="1">
                    <mxGeometry x="630" y="360" width="80" height="40" as="geometry"/>
                </mxCell>
                <mxCell id="-Ce5dqivGfvMiazrthJt-22" value="Xóa" style="rounded=1;whiteSpace=wrap;html=1;fontSize=18;fillColor=none;" parent="SmKF6gzpdZYjzV4cevd--1" vertex="1">
                    <mxGeometry x="720" y="360" width="80" height="40" as="geometry"/>
                </mxCell>
            </root>
        </mxGraphModel>
    </diagram>
    <diagram id="TjTEixf6cpGFj1sEPgSs" name="Search Lottery">
        <mxGraphModel dx="789" dy="189" grid="1" gridSize="10" guides="1" tooltips="1" connect="1" arrows="1" fold="1" page="1" pageScale="1" pageWidth="850" pageHeight="1100" math="0" shadow="0">
            <root>
                <mxCell id="WnS5BLOhJa2uofwj_7jC-0"/>
                <mxCell id="WnS5BLOhJa2uofwj_7jC-1" parent="WnS5BLOhJa2uofwj_7jC-0"/>
                <mxCell id="WnS5BLOhJa2uofwj_7jC-2" value="" style="rounded=0;whiteSpace=wrap;html=1;fontSize=18;fillColor=none;" parent="WnS5BLOhJa2uofwj_7jC-1" vertex="1">
                    <mxGeometry x="160" y="200" width="560" height="440" as="geometry"/>
                </mxCell>
                <mxCell id="WnS5BLOhJa2uofwj_7jC-4" value="DÒ VÉ" style="text;html=1;strokeColor=none;fillColor=none;align=center;verticalAlign=middle;whiteSpace=wrap;rounded=0;fontSize=18;" parent="WnS5BLOhJa2uofwj_7jC-1" vertex="1">
                    <mxGeometry x="320" y="240" width="240" height="40" as="geometry"/>
                </mxCell>
                <mxCell id="WnS5BLOhJa2uofwj_7jC-5" value="Date" style="rounded=1;whiteSpace=wrap;html=1;fontSize=18;fillColor=none;" parent="WnS5BLOhJa2uofwj_7jC-1" vertex="1">
                    <mxGeometry x="380" y="320" width="240" height="40" as="geometry"/>
                </mxCell>
                <mxCell id="WnS5BLOhJa2uofwj_7jC-7" value="Ngày" style="text;html=1;strokeColor=none;fillColor=none;align=center;verticalAlign=middle;whiteSpace=wrap;rounded=0;fontSize=18;" parent="WnS5BLOhJa2uofwj_7jC-1" vertex="1">
                    <mxGeometry x="280" y="325" width="60" height="30" as="geometry"/>
                </mxCell>
                <mxCell id="WnS5BLOhJa2uofwj_7jC-8" value="Select" style="rounded=1;whiteSpace=wrap;html=1;fontSize=18;fillColor=none;" parent="WnS5BLOhJa2uofwj_7jC-1" vertex="1">
                    <mxGeometry x="380" y="400" width="240" height="40" as="geometry"/>
                </mxCell>
                <mxCell id="WnS5BLOhJa2uofwj_7jC-9" value="Tỉnh" style="text;html=1;strokeColor=none;fillColor=none;align=center;verticalAlign=middle;whiteSpace=wrap;rounded=0;fontSize=18;" parent="WnS5BLOhJa2uofwj_7jC-1" vertex="1">
                    <mxGeometry x="280" y="405" width="60" height="30" as="geometry"/>
                </mxCell>
                <mxCell id="WnS5BLOhJa2uofwj_7jC-10" value="Number" style="rounded=1;whiteSpace=wrap;html=1;fontSize=18;fillColor=none;" parent="WnS5BLOhJa2uofwj_7jC-1" vertex="1">
                    <mxGeometry x="380" y="480" width="240" height="40" as="geometry"/>
                </mxCell>
                <mxCell id="WnS5BLOhJa2uofwj_7jC-11" value="Số vé" style="text;html=1;strokeColor=none;fillColor=none;align=center;verticalAlign=middle;whiteSpace=wrap;rounded=0;fontSize=18;" parent="WnS5BLOhJa2uofwj_7jC-1" vertex="1">
                    <mxGeometry x="280" y="485" width="60" height="30" as="geometry"/>
                </mxCell>
                <mxCell id="WnS5BLOhJa2uofwj_7jC-12" value="Dò" style="rounded=0;whiteSpace=wrap;html=1;fontSize=18;fillColor=none;" parent="WnS5BLOhJa2uofwj_7jC-1" vertex="1">
                    <mxGeometry x="380" y="560" width="120" height="60" as="geometry"/>
                </mxCell>
            </root>
        </mxGraphModel>
    </diagram>
</mxfile>